<?xml version="1.0" encoding="utf-8"?>
<svg viewBox="0 0 1024 1024" xmlns="http://www.w3.org/2000/svg">
  <defs>
    <linearGradient id="gradient_0" gradientUnits="userSpaceOnUse" x1="449.83557" y1="998.95618" x2="543.7572" y2="720.05841">
      <stop offset="0" stop-color="#CED9DC"/>
      <stop offset="1" stop-color="#FFFEFD"/>
    </linearGradient>
  </defs>
  <path d="M0 0L735.07 0L739.442 0L1024 0L1024 464.292L1024 476.214L1024 601.773L1024 614.345L1024 1024L635.71 1024L383.016 1024L0 1024L0 0Z" fill="teal" transform="matrix(1, 0, 0, 1, 1.4210854715202004e-14, 0)"/>
  <path fill="#97B1B2" d="M367.617 295.558C372.679 298.626 377.306 302.316 381.36 306.639L374.934 308.324C371.298 304.329 368.005 301.246 367.617 295.558Z" transform="matrix(1, 0, 0, 1, 1.4210854715202004e-14, 0)"/>
  <path fill="#F3FAFB" d="M675.897 808.947C675.921 809.082 675.959 809.214 675.969 809.35C676.256 813.54 668.458 833.296 665.672 837.113C665.891 830.034 668.649 820.786 670.205 813.759C672.25 812.283 674.058 810.661 675.897 808.947Z" transform="matrix(1, 0, 0, 1, 1.4210854715202004e-14, 0)"/>
  <path fill="#F3FAFB" d="M723.488 259.496C726.381 257.524 729.282 255.581 732.027 253.404C732.031 257.091 732.073 260.782 731.999 264.467C729.231 266.372 726.574 268.25 723.484 269.607C723.096 266.343 722.374 262.66 723.488 259.496Z" transform="matrix(1, 0, 0, 1, 1.4210854715202004e-14, 0)"/>
  <path fill="#97B1B2" d="M344.837 799.916C345.805 800.961 353.157 841.298 354.205 846.605C352.72 844.946 351.306 843.213 349.863 841.516C342.752 832.172 338.874 822.162 336.967 810.591C337.594 810.276 338.214 809.967 338.81 809.597C342.616 807.237 343.818 804.105 344.837 799.916Z" transform="matrix(1, 0, 0, 1, 1.4210854715202004e-14, 0)"/>
  <path fill="#EAEFF1" d="M268.895 250.323L269.376 249.639C272.983 252.709 276.302 256.178 280.113 258.996C294.666 269.756 314.114 276.839 331.43 281.773C344.062 285.373 356.449 288.249 367.617 295.558C368.005 301.246 371.298 304.329 374.934 308.324L373.241 308.734C370.736 308.166 362.145 299.963 357.592 297.905C348.281 293.699 336.972 292.525 327.153 289.531C305.155 282.821 280.252 271.656 268.895 250.323Z" transform="matrix(1, 0, 0, 1, 1.4210854715202004e-14, 0)"/>
  <path fill="#EAEFF1" d="M723.488 259.496C722.374 262.66 723.096 266.343 723.484 269.607L723.432 269.931C707.134 278.564 695.488 286.675 677.546 292.633C660.513 298.288 642.075 299.668 626.019 308.038L624.769 307.542L624.757 306.691C627.988 302.755 632.064 299.116 636.53 296.636C641.608 293.817 647.427 292.332 652.942 290.599C663.684 287.224 674.527 284.303 684.943 279.976C698.627 274.292 710.946 267.346 723.488 259.496Z" transform="matrix(1, 0, 0, 1, 1.4210854715202004e-14, 0)"/>
  <path fill="#EAEFF1" d="M973.246 542.322C970.138 562.51 967.384 582.489 962.272 602.326C960.847 607.855 959.439 613.567 957.519 618.945C954.135 628.429 951.363 632.781 950.523 643.346C945.425 643.481 940.343 643.615 935.257 644.018C936.884 638.445 939.122 633.047 940.878 627.508C943.118 620.441 955.526 579.466 953.329 574.077C959.968 563.731 967.664 553.252 973.246 542.322Z" transform="matrix(1, 0, 0, 1, 1.4210854715202004e-14, 0)"/>
  <path fill="#F3FAFB" d="M953.329 574.077C955.526 579.466 943.118 620.441 940.878 627.508C939.122 633.047 936.884 638.445 935.257 644.018C919.912 644.389 904.268 646.349 889.111 648.716C898.892 638.735 908.909 628.999 918.228 618.575C930.858 604.447 942.26 589.442 953.329 574.077Z" transform="matrix(1, 0, 0, 1, 1.4210854715202004e-14, 0)"/>
  <path fill="#47B7B2" d="M378.369 1013.9C376.524 1012.4 375.069 1010.88 374.14 1008.65C372.827 1005.49 372.997 1001.76 374.308 998.635C375.663 995.407 378.227 992.979 381.509 991.768C384.703 990.588 388.776 990.411 392.159 990.301C404.194 989.908 416.405 990.573 428.469 990.564L512.19 990.489L589.621 990.508C602.569 990.506 615.583 990.241 628.524 990.601C632.069 990.699 637.329 990.674 640.513 992.35C642.945 993.631 644.48 995.951 645.265 998.533C646.626 1003.01 646.091 1007.49 643.823 1011.53C644.022 1006 643.106 1001.1 640.841 996.025C580.857 997.162 520.845 997.021 460.85 996.899C434.026 996.844 407.023 995.888 380.223 996.617C377.625 998.903 376.149 1001.13 375.861 1004.67C375.575 1008.2 376.624 1010.95 378.369 1013.9Z" transform="matrix(1, 0, 0, 1, 1.4210854715202004e-14, 0)"/>
  <path fill="#97B1B2" d="M634.049 605.606C638.777 604.614 643.323 602.586 647.812 600.83C666.258 639.315 676.701 684.752 671.125 727.472C669.78 737.778 667.102 747.667 664.383 757.671C661.008 754.537 657.427 751.738 653.5 749.321C657.621 736.327 659.996 732.225 660.897 717.751C662.956 684.657 655.483 653.591 642.76 623.265C640.35 617.521 638.183 610.28 634.049 605.606Z" transform="matrix(1, 0, 0, 1, 1.4210854715202004e-14, 0)"/>
  <path fill="#97B1B2" d="M629.725 591.344C633.18 592.278 636.052 591.036 639.262 589.77C667.394 578.674 696.041 556.886 712.954 531.75C718.274 523.844 722.464 515.145 726.199 506.392C744.469 463.576 742.011 419.214 726.397 376.072C722.968 366.596 718.308 357.597 714.556 348.245L715.866 347.293L714.464 346.821C714.506 346.804 714.544 346.77 714.59 346.769C715.643 346.757 716.408 347.596 717.259 348.168C742.452 389.114 751.725 438.935 740.531 485.935C731.222 525.023 706.847 559.394 672.561 580.536C644.829 597.636 611.117 607.244 578.482 606.362C573.482 606.227 567.824 606.466 562.947 605.318C562.788 605.281 562.632 605.233 562.474 605.19C586.579 604.394 607.37 600.729 629.725 591.344Z" transform="matrix(1, 0, 0, 1, 1.4210854715202004e-14, 0)"/>
  <path fill="#97B1B2" d="M360.243 284.408C386.869 269.261 413.673 257.024 443.747 250.429C498.374 238.45 563.208 243.259 615.091 264.379C628.146 269.694 640.629 276.506 652.493 284.09L644.41 286.392C589.916 259.37 537.761 247.557 476.907 253.318C457.415 255.163 438.361 258.406 419.775 264.665C407.328 268.857 377.741 280.465 369.3 288.869C366.34 287.292 363.255 285.888 360.243 284.408Z" transform="matrix(1, 0, 0, 1, 1.4210854715202004e-14, 0)"/>
  <path fill="#F3FAFB" d="M116.375 607.338C119.997 609.626 129.625 620.823 133.886 624.849C143.646 634.071 154.794 642.267 166.091 649.504C189.609 664.569 215.066 675.139 239.845 687.784C250.487 693.215 260.596 699.214 270.711 705.568C272.744 714.22 274.292 723.034 276.167 731.73C255.554 713.041 218.874 692.147 191.476 687.644C157.146 682.082 117.982 701.172 90.3216 720.142L86.8205 713.412C117.023 694.647 145.769 684.682 178.304 671.841C173.425 668.183 169.064 663.838 164.553 659.744L144.489 641.734C133.623 631.978 121.759 622.693 111.53 612.307L116.375 607.338Z" transform="matrix(1, 0, 0, 1, 1.4210854715202004e-14, 0)"/>
  <path fill="#97B1B2" d="M723.484 269.607C726.574 268.25 729.231 266.372 731.999 264.467C730.06 294.474 723.317 325.225 699.778 346.027C699.066 346.657 698.337 347.265 697.601 347.866C696.326 349.282 694.304 350.491 692.773 351.663C674.909 330.232 652.765 315.761 626.019 308.038C642.075 299.668 660.513 298.288 677.546 292.633C695.488 286.675 707.134 278.564 723.432 269.931L723.484 269.607Z" transform="matrix(1, 0, 0, 1, 1.4210854715202004e-14, 0)"/>
  <path fill="#97B1B2" d="M696.824 357.083C703.411 352.845 708.238 347.609 713.364 341.785C714.725 343.871 715.977 346.033 717.259 348.168C716.408 347.596 715.643 346.757 714.59 346.769C714.544 346.77 714.506 346.804 714.464 346.821L715.866 347.293L714.556 348.245C718.308 357.597 722.968 366.596 726.397 376.072C742.011 419.214 744.469 463.576 726.199 506.392C722.464 515.145 718.274 523.844 712.954 531.75C696.041 556.886 667.394 578.674 639.262 589.77C636.052 591.036 633.18 592.278 629.725 591.344C636.055 588.288 642.285 584.839 648.198 581.037C684.601 557.626 710.114 519.741 719.177 477.56C728.532 434.023 720.991 394.464 696.824 357.083Z" transform="matrix(1, 0, 0, 1, 1.4210854715202004e-14, 0)"/>
  <path fill="#F3FAFB" d="M980.841 527.451C989.331 526.642 996.52 525.427 1003.58 520.346C1018.01 509.95 1021.34 492.732 1024 476.214L1024 601.773C1021.1 598.925 1017.23 598.007 1013.3 597.597C996.36 595.831 979.356 601.234 966.331 611.974C973.881 584.191 977.955 556.035 980.841 527.451Z" transform="matrix(1, 0, 0, 1, 1.4210854715202004e-14, 0)"/>
  <path fill="#97B1B2" d="M268.895 250.323C280.252 271.656 305.155 282.821 327.153 289.531C336.972 292.525 348.281 293.699 357.592 297.905C362.145 299.963 370.736 308.166 373.241 308.734C343.883 317.167 322.474 335.382 304.853 359.73C300.87 354.528 296.663 349.503 293.135 343.967C275.2 315.821 269.259 283.197 268.895 250.323Z" transform="matrix(1, 0, 0, 1, 1.4210854715202004e-14, 0)"/>
  <path fill="#F3FAFB" d="M733.255 718.578C736.586 717.058 739.793 714.863 742.973 713.031C747.968 710.154 753.063 707.448 758.158 704.753C778.241 694.129 798.564 684.005 818.236 672.606C873.184 640.765 907.086 611.013 945.27 560.414C951.083 552.711 965.869 530.748 968.1 522.346L967.836 522.245L968.113 522.412C969.348 524.608 970.803 525.364 973.072 526.308C974.163 526.917 974.359 526.824 974.944 527.995C972.151 535.268 966.464 542.936 962.279 549.535C942.347 580.963 920.175 608.91 893.724 635.167C887.613 641.233 881.571 647.432 875.104 653.12C876.284 653.76 877.519 654.445 878.878 654.579C885.731 655.252 893.879 653.313 900.81 652.512C906.522 651.852 947.964 647.507 951.337 648.809L951.593 650.247C950.759 651.093 949.891 651.286 948.752 651.481C941.162 652.781 932.986 653.002 925.287 653.906C910.368 655.657 895.447 657.949 880.648 660.514C874.137 661.643 867.048 662.467 860.778 664.537C852.616 667.231 844.677 673.366 837.12 677.56C798.671 698.9 761.876 720.114 727.317 747.611C729.519 737.974 731.401 728.285 733.255 718.578Z" transform="matrix(1, 0, 0, 1, 1.4210854715202004e-14, 0)"/>
  <path fill="#97B1B2" d="M286.201 344.628C287.817 348.137 289.798 351.171 292.106 354.256C295.087 357.918 298.058 361.541 301.609 364.673C279.715 404.689 274.059 444.412 287.064 488.678C299.249 530.15 328.562 564.25 366.348 584.768C383.953 594.326 402.959 599.903 422.725 602.817C425.915 603.287 437.481 603.543 439.668 604.47C437.863 605.486 433.741 605.285 431.598 605.434C412.874 606.733 394.433 605.157 376.332 600.049C334.633 588.283 301.209 560.519 280.324 522.814C272.913 509.434 261.958 481.564 261.599 466.741C259.649 457.757 259.24 448.184 259.306 439.023C259.555 404.222 270.183 375.009 286.201 344.628Z" transform="matrix(1, 0, 0, 1, 1.4210854715202004e-14, 0)"/>
  <path fill="#97B1B2" d="M501.547 595.094C509.459 597.702 517.183 600.821 525.153 603.284C560.957 614.352 591.669 615.84 628.24 607.11C631.03 612.397 632.895 617.322 634.338 623.117C623.604 626.418 611.733 627.006 600.585 627.765C572.439 629.681 544.151 629.115 515.993 627.731C500.01 626.945 484.032 625.469 468.022 625.442C445.172 625.403 422.269 629.413 399.459 627.371C386.799 626.238 373.498 623.419 362.192 617.427L360.058 616.272C345.686 658.842 340.199 708.206 360.654 749.72C361.206 750.841 361.763 751.826 362.502 752.832C353.656 759.537 348.654 765.776 344.919 776.244C344.139 770.965 342.449 765.651 341.141 760.467C339.161 752.616 337.419 744.74 336.144 736.741C328.587 689.334 337.519 644.145 355.392 600.158C393.665 613.985 424.199 615.069 463.521 606.424C476.521 603.566 489.218 600.156 501.547 595.094Z" transform="matrix(1, 0, 0, 1, 1.4210854715202004e-14, 0)"/>
  <path fill="#97B1B2" d="M654.149 598.492C668.888 591.169 683.572 583.221 695.832 572.06C709.773 592.699 718.158 614.832 724.009 638.916C725.04 643.16 727.141 649.345 726.611 653.593C726.523 654.298 726.164 654.824 725.776 655.392C736.877 688.567 719.227 765.55 703.85 796.697C702.197 800.044 698.781 806.402 695.384 807.901C694.455 807.42 694.688 807.749 694.342 806.8C692.878 802.79 693.795 788.543 695.412 784.676C695.956 779.955 698.167 776.574 699.286 772.136C694.813 777.587 682.231 798.358 677.23 800.184C675.861 799.07 675.063 796.993 674.847 795.259C674.511 792.556 675.128 789.475 675.254 786.743C675.617 778.918 673.123 770.923 669.709 763.972L669.41 763.374C682.232 727.885 681.311 690.624 673.471 654.169C670.853 642.001 667.672 629.871 662.805 618.392L654.149 598.492Z" transform="matrix(1, 0, 0, 1, 1.4210854715202004e-14, 0)"/>
  <path fill="#97B1B2" d="M688.349 615.247C701.316 618.266 711.327 627.041 718.231 638.218C721.584 643.645 723.925 649.305 725.776 655.392C736.877 688.567 719.227 765.55 703.85 796.697C702.197 800.044 698.781 806.402 695.384 807.901C694.455 807.42 694.688 807.749 694.342 806.8C692.878 802.79 693.795 788.543 695.412 784.676C697.137 782.627 698.233 778.055 699.351 775.439C709.915 750.711 717.37 724.036 719.821 697.185C722.017 673.137 717.929 647.902 702.104 628.836C700.205 626.549 698.201 624.263 695.977 622.287C693.718 620.279 690.823 618.366 688.954 616.026C688.748 615.77 688.551 615.507 688.349 615.247Z" transform="matrix(1, 0, 0, 1, 1.4210854715202004e-14, 0)"/>
  <path fill="#97B1B2" d="M307.211 568.532C319.44 580.845 334.509 589.829 349.865 597.621C348.42 600.491 347.188 603.507 345.875 606.443C328.668 648.778 322.92 695.001 330.163 740.126C332.273 753.271 336.028 765.976 338.611 779.005C339.639 784.195 340.683 800.115 334.911 802.321C334.028 802.658 333.691 802.551 332.863 802.076C327.161 798.805 316.536 780.251 310.672 774.236C312.853 786.032 314.5 798.046 314.966 810.041C301.459 788.834 290.865 764.944 285.186 740.376C283.378 733.824 281.269 727.249 279.874 720.6C274.184 693.476 273.122 659.21 281.39 632.527C282.346 616.801 299.241 582.745 307.211 568.532Z" transform="matrix(1, 0, 0, 1, 1.4210854715202004e-14, 0)"/>
  <path fill="#F3FAFB" d="M288.162 623.481C289.868 627.962 285.418 642.982 284.545 648.559C282.77 659.889 281.74 671.349 282.139 682.825C282.557 694.817 284 707.282 286.818 718.951C287.947 723.625 292.893 735.668 291.476 739.429C291.079 740.481 290.242 741.105 289.13 741.229C287.949 741.361 286.32 740.727 285.186 740.376C283.378 733.824 281.269 727.249 279.874 720.6C274.184 693.476 273.122 659.21 281.39 632.527C283.484 629.317 285.345 626.124 288.162 623.481Z" transform="matrix(1, 0, 0, 1, 1.4210854715202004e-14, 0)"/>
  <path fill="#EAEFF1" d="M930.115 658.776C936.505 657.394 943.029 656.754 949.395 655.214C944.918 666.1 940.771 677.178 936.055 687.959C927.956 706.475 918.468 725.023 908.34 742.524C858.357 828.896 779.745 900.354 687.367 938.797C673.274 944.661 658.344 950.702 643.664 954.781L655.191 893.102C661.844 891.817 668.387 889.189 674.875 887.242C699.876 879.74 723.266 871.373 746.615 859.554C818.973 822.927 880.645 761.549 916.837 688.938C921.571 679.442 927.376 669.694 930.673 659.617L930.115 658.776Z" transform="matrix(1, 0, 0, 1, 1.4210854715202004e-14, 0)"/>
  <path fill="#97B1B2" d="M369.3 288.869C377.741 280.465 407.328 268.857 419.775 264.665C438.361 258.406 457.415 255.163 476.907 253.318C537.761 247.557 589.916 259.37 644.41 286.392C632.934 290.414 624.493 296.323 617.13 306.101C589.799 302.34 564.231 309.93 542.361 326.604C523.835 340.729 508.163 361.678 502.354 384.467C492.806 355.017 472.932 329.212 445.032 315.056C426.651 305.73 409.037 303.66 388.71 305.115C382.888 298.391 376.793 293.639 369.3 288.869Z" transform="matrix(1, 0, 0, 1, 1.4210854715202004e-14, 0)"/>
  <path fill="#F3FAFB" d="M132.35 703.067C166.705 690.49 187.161 687.838 221.063 703.577C242.132 713.358 260.277 726.406 278.125 741.116C282.315 755.401 300.478 809.294 313.111 816.256C314.485 817.012 315.93 817.34 317.451 816.757C319.105 816.123 319.992 814.758 320.565 813.164C321.97 809.255 321.527 804.174 321.463 800.053C324.318 803.332 327.121 806.537 330.384 809.426C332.571 823.223 337.636 836.561 347.028 847.124C349.811 850.254 353.569 853.006 355.452 856.784C358.441 862.785 361.772 885.797 363.166 893.642C362.896 893.604 362.626 893.573 362.357 893.529C349.553 891.428 323.892 878.483 311.554 872.167C256.163 843.813 206.056 803.229 167.963 753.912C161.152 745.094 154.377 736.016 148.161 726.769C142.874 718.904 138.047 710.639 132.35 703.067Z" transform="matrix(1, 0, 0, 1, 1.4210854715202004e-14, 0)"/>
  <path fill="#97B1B2" d="M217.141 746.052C218.113 745.961 219.075 745.877 220.053 745.911C222.345 745.991 224.654 747.135 226.146 748.873C227.371 750.3 227.997 752.163 227.72 754.038C227.291 756.944 225.405 758.543 223.155 760.186C221.785 760.495 220.406 760.761 218.996 760.558C217.105 760.286 215.279 759.207 214.132 757.684C212.916 756.067 212.494 754.049 212.8 752.061C213.239 749.216 214.926 747.675 217.141 746.052Z" transform="matrix(1, 0, 0, 1, 1.4210854715202004e-14, 0)"/>
  <path fill="#EAEFF1" d="M92.812 724.935C105.308 716.015 118.293 709.179 132.35 703.067C138.047 710.639 142.874 718.904 148.161 726.769C154.377 736.016 161.152 745.094 167.963 753.912C206.056 803.229 256.163 843.813 311.554 872.167C323.892 878.483 349.553 891.428 362.357 893.529C362.626 893.573 362.896 893.604 363.166 893.642C367.232 914.575 371.019 935.667 375.695 956.47L371.97 955.413C248.439 919.127 153.946 837.192 92.812 724.935Z" transform="matrix(1, 0, 0, 1, 1.4210854715202004e-14, 0)"/>
  <path fill="#F3FAFB" d="M 724.801 757.83 C 760.027 727.984 800.156 704.827 840.484 682.623 C 847.764 678.615 855.246 672.814 863.011 670.027 C 869.515 667.692 876.968 666.867 883.769 665.661 C 899.146 662.932 914.593 660.528 930.115 658.776 L 930.673 659.617 C 927.376 669.694 921.571 679.442 916.837 688.938 C 880.645 761.549 818.973 822.927 746.615 859.554 C 738.832 863.494 731.044 867.05 723.193 870.319 C 723.681 870.8 724.13 871.3 724.525 871.804 C 726.035 873.729 727.009 876.39 727.479 878.598 C 727.852 880.353 727.72 882.517 727.554 883.93 C 729.26 885.026 730.841 886.519 731.91 887.755 C 733.137 889.173 733.771 890.418 734.273 892.186 C 734.86 894.251 735.131 897.403 734.864 899.571 C 734.63 901.47 734.032 903.001 733.091 904.592 C 732.073 906.314 730.955 907.905 728.808 909.466 C 725.871 911.603 719.481 912.922 715.958 915.522 C 712.697 917.929 711.068 921.468 708.13 924.236 C 705.046 927.144 702.063 930.802 697.792 932.507 C 693.014 934.414 684.171 934.661 680.363 934.28 C 678.048 934.048 677.136 933.408 675.637 932.507 C 674.023 931.537 672.288 930.215 671.058 928.52 C 669.726 926.684 668.569 923.898 668.104 921.725 C 667.71 919.885 667.705 918.288 668.044 916.429 C 666.49 915.472 664.85 914.19 663.673 912.568 C 662.341 910.733 661.184 907.947 660.719 905.774 C 660.303 903.83 660.284 902.242 660.719 900.162 C 661.251 897.619 662.409 894.47 664.264 891.595 C 664.51 891.215 664.774 890.826 665.055 890.433 C 661.79 891.489 658.504 892.462 655.191 893.102 C 658.016 879.835 658.927 865.682 662.59 852.655 C 664.511 845.824 670.565 840.515 673.488 833.989 C 675.427 829.66 677.028 824.995 678.256 820.414 C 679.584 815.458 680.448 809.398 682.919 804.897 C 683.827 803.242 685.586 801.691 686.897 800.335 C 687.062 803.473 687.355 806.577 688.328 809.586 C 688.969 811.566 690.021 813.852 692.101 814.661 C 693.959 815.383 696.594 814.464 698.22 813.507 C 710.717 806.149 721.346 772.197 724.801 757.83 Z" style="stroke: #F3FAFB;" transform="matrix(1, 0, 0, 1, 1.4210854715202004e-14, 0)"/>
  <path fill="#F3FAFB" d="M628.24 607.11L634.049 605.606C638.183 610.28 640.35 617.521 642.76 623.265C655.483 653.591 662.956 684.657 660.897 717.751C659.996 732.225 657.621 736.327 653.5 749.321C650.418 748.151 647.344 747.272 644.034 747.083C628.724 746.21 612.919 746.91 597.563 746.919L510.291 746.94L425.369 747.011C410.528 747.009 395.285 746.225 380.483 747.107C375.34 747.413 370.796 748.92 366.124 751.011C364.887 751.564 363.681 752.163 362.502 752.832C361.763 751.826 361.206 750.841 360.654 749.72C340.199 708.206 345.686 658.842 360.058 616.272L362.192 617.427C373.498 623.419 386.799 626.238 399.459 627.371C422.269 629.413 445.172 625.403 468.022 625.442C484.032 625.469 500.01 626.945 515.993 627.731C544.151 629.115 572.439 629.681 600.585 627.765C611.733 627.006 623.604 626.418 634.338 623.117C632.895 617.322 631.03 612.397 628.24 607.11Z" transform="matrix(1, 0, 0, 1, 1.4210854715202004e-14, 0)"/>
  <path fill="#97B1B2" d="M371.568 721.379C373.428 721.531 375.37 721.833 376.59 723.425C377.47 724.573 377.751 725.663 377.556 727.084C377.218 729.541 375.778 730.677 373.925 732.149C372.123 732.027 370.762 731.678 369.445 730.322C368.411 729.257 368.039 727.989 368.167 726.524C368.387 724.009 369.766 722.933 371.568 721.379Z" transform="matrix(1, 0, 0, 1, 1.4210854715202004e-14, 0)"/>
  <path fill="#97B1B2" d="M436.658 721.48C438.898 721.459 440.845 721.509 442.512 723.231C443.427 724.176 443.863 725.402 443.711 726.713C443.469 728.791 442.12 730.097 440.605 731.371C439.746 731.618 438.953 731.833 438.044 731.795C436.74 731.741 435.438 731.192 434.582 730.183C433.71 729.154 433.45 727.749 433.578 726.438C433.798 724.168 435.022 722.928 436.658 721.48Z" transform="matrix(1, 0, 0, 1, 1.4210854715202004e-14, 0)"/>
  <path fill="#97B1B2" d="M500.944 721.448C501.553 721.444 502.156 721.436 502.763 721.498C504.516 721.679 506.067 722.376 507.102 723.875C507.907 725.041 508.02 726.078 507.773 727.444C507.387 729.581 505.883 730.733 504.194 731.88C503.966 731.895 503.739 731.921 503.51 731.925C501.655 731.953 499.88 731.608 498.598 730.137C497.705 729.112 497.447 727.746 497.595 726.428C497.862 724.058 499.243 722.916 500.944 721.448Z" transform="matrix(1, 0, 0, 1, 1.4210854715202004e-14, 0)"/>
  <path fill="#97B1B2" d="M566.208 721.52C566.801 721.437 567.128 721.378 567.758 721.358C569.479 721.305 571.103 721.703 572.243 723.117C572.965 724.011 573.229 725.127 573.158 726.257C572.991 728.903 571.633 730.235 569.738 731.918C569.443 731.926 569.147 731.954 568.851 731.942C566.994 731.866 565.351 731.308 564.132 729.853C563.186 728.724 562.828 727.357 563.012 725.904C563.294 723.682 564.511 722.739 566.208 721.52Z" transform="matrix(1, 0, 0, 1, 1.4210854715202004e-14, 0)"/>
  <path fill="#97B1B2" d="M631.003 721.434C631.698 721.371 632.409 721.359 633.106 721.409C634.638 721.519 635.975 722.185 636.957 723.381C637.854 724.472 638.201 725.862 638.006 727.254C637.697 729.458 636.421 730.665 634.715 731.93C634.322 731.948 633.929 731.97 633.536 731.964C631.84 731.938 630.116 731.459 629.02 730.058C628.124 728.914 627.793 727.85 627.892 726.412C628.06 723.982 629.267 722.939 631.003 721.434Z" transform="matrix(1, 0, 0, 1, 1.4210854715202004e-14, 0)"/>
  <path fill="#97B1B2" d="M565.011 642.465C565.181 642.461 565.351 642.453 565.52 642.454C567.641 642.476 569.593 642.741 571.048 644.452C571.797 645.332 572.12 646.333 572.065 647.48C571.935 650.157 570.455 651.475 568.522 653.121C568.381 653.116 568.24 653.116 568.1 653.106C566.01 652.951 564.098 652.393 562.7 650.736C561.799 649.669 561.424 648.368 561.617 646.984C561.934 644.709 563.272 643.728 565.011 642.465Z" transform="matrix(1, 0, 0, 1, 1.4210854715202004e-14, 0)"/>
  <path fill="#97B1B2" d="M629.609 641.459C630.154 641.523 630.129 641.505 630.754 641.667C632.282 642.061 633.688 642.816 634.453 644.262C635.215 645.702 635.21 647.145 634.672 648.675C633.973 650.667 632.43 651.705 630.579 652.48C629.907 652.361 629.143 652.261 628.49 652.041C626.842 651.486 625.416 650.336 624.749 648.694C624.248 647.461 624.331 646.091 624.919 644.904C625.901 642.925 627.69 642.229 629.609 641.459Z" transform="matrix(1, 0, 0, 1, 1.4210854715202004e-14, 0)"/>
  <path fill="#97B1B2" d="M534.918 681.383C536.919 681.298 538.582 681.257 540.225 682.655C541.311 683.579 541.936 684.834 541.991 686.262C542.084 688.696 540.856 690.37 539.203 691.998C538.56 692.05 537.886 692.125 537.238 692.107C535.473 692.059 534.011 691.648 532.817 690.259C531.883 689.173 531.642 687.969 531.736 686.573C531.887 684.31 533.349 682.833 534.918 681.383Z" transform="matrix(1, 0, 0, 1, 1.4210854715202004e-14, 0)"/>
  <path fill="#97B1B2" d="M598.471 680.917C599.071 680.91 599.392 680.894 600.019 680.946C601.549 681.074 602.919 681.668 603.902 682.875C604.808 683.987 605.144 685.366 604.959 686.768C604.621 689.329 603.199 690.755 601.2 692.214C599.503 692.302 597.741 692.31 596.433 691.033C595.256 689.885 594.845 688.52 594.972 686.919C595.189 684.174 596.484 682.677 598.471 680.917Z" transform="matrix(1, 0, 0, 1, 1.4210854715202004e-14, 0)"/>
  <path fill="#97B1B2" d="M499.82 642.991C500.015 642.969 500.208 642.94 500.403 642.924C502.439 642.758 504.739 642.856 506.24 644.466C507.085 645.373 507.514 646.244 507.507 647.502C507.491 650.186 505.967 651.457 504.135 653.163C503.607 653.276 503.311 653.353 502.743 653.399C501.037 653.537 499.472 653.221 498.237 651.952C497.234 650.922 496.842 649.57 496.908 648.166C497.021 645.779 498.117 644.536 499.82 642.991Z" transform="matrix(1, 0, 0, 1, 1.4210854715202004e-14, 0)"/>
  <path fill="#97B1B2" d="M468.489 681.436C469.118 681.372 469.866 681.255 470.506 681.308C472.164 681.445 473.879 682.181 474.924 683.523C475.777 684.62 475.968 685.88 475.836 687.228C475.625 689.385 473.954 690.77 472.365 692C471.617 692.23 470.951 692.411 470.154 692.359C468.847 692.274 467.512 691.669 466.67 690.649C465.721 689.5 465.443 687.954 465.53 686.504C465.673 684.105 466.75 682.963 468.489 681.436Z" transform="matrix(1, 0, 0, 1, 1.4210854715202004e-14, 0)"/>
  <path fill="#97B1B2" d="M403.089 680.911C405.008 681.004 407.191 681.505 408.443 683.122C409.562 684.567 409.756 685.969 409.354 687.726C408.856 689.9 407.153 691.05 405.414 692.216C403.553 692.165 401.481 691.728 400.213 690.222C399.142 688.951 398.772 687.568 399.067 685.953C399.538 683.383 401.009 682.286 403.089 680.911Z" transform="matrix(1, 0, 0, 1, 1.4210854715202004e-14, 0)"/>
  <path fill="#97B1B2" d="M437.436 641.03C438.002 641.114 438.568 641.201 439.125 641.334C440.756 641.723 442.111 642.86 442.944 644.3C443.718 645.639 443.857 647.257 443.415 648.731C442.708 651.086 441.137 651.985 439.068 653.011C436.843 652.51 434.812 651.652 433.566 649.637C432.741 648.301 432.547 646.744 433.04 645.258C433.798 642.968 435.445 642.116 437.436 641.03Z" transform="matrix(1, 0, 0, 1, 1.4210854715202004e-14, 0)"/>
  <path fill="#97B1B2" d="M372.953 640.968C373.439 640.964 373.927 640.952 374.412 640.981C376.327 641.095 378.204 641.851 379.431 643.374C380.298 644.451 380.664 645.838 380.484 647.2C380.164 649.625 378.615 651.024 376.775 652.436C375.785 652.508 374.725 652.619 373.739 652.493C372.502 652.335 371.062 651.335 370.353 650.307C369.325 648.817 369.034 647.198 369.442 645.454C369.957 643.255 371.117 642.163 372.953 640.968Z" transform="matrix(1, 0, 0, 1, 1.4210854715202004e-14, 0)"/>
  <path fill="#F3FAFB" d="M739.442 0L1024 0L1024 464.292C1023.39 461.812 1022.87 458.809 1021.38 456.708C1020.17 455.013 1018.44 453.938 1016.39 453.618C1006.52 452.077 989.321 462.756 981.66 468.376C979.524 451.251 978.3 434.109 975.399 417.069C964.591 353.584 942.143 292.755 908.495 237.766C899.362 222.84 889.321 208.641 879.051 194.492C882.105 182.556 884.643 170.338 888.197 158.549C889.195 158.45 890.193 158.35 891.189 158.231C899.313 157.266 906.162 153.252 911.141 146.801C918.493 137.278 920.137 125.285 918.546 113.627C917.503 105.987 912.799 88.2726 906.303 83.7508C905.068 82.8917 903.849 82.77 902.424 83.0924C893.92 85.0156 882.78 98.4125 878.178 105.468C872.146 114.715 867.901 126.011 870.385 137.152C872.285 145.669 877.177 152.327 884.516 156.957C882.014 168.174 879.113 179.313 876.522 190.513C863.781 174.765 850.636 159.205 836.433 144.747C810.399 118.242 780.929 95.3496 750.297 74.4709C749.136 68.896 747.442 63.4814 745.666 58.0793C748.163 53.2093 750.77 48.3954 754.048 44.0002C757.906 46.5349 762.101 48.1481 766.787 47.8132C772.962 47.3717 778.363 43.6145 782.327 39.057C788.2 32.3049 790.286 23.7142 789.569 14.9264C789.274 11.3101 788.496 4.99948 785.634 2.60215C780.176 1.85843 769.562 7.37691 765.088 10.3947C758.014 15.1672 751.865 21.5995 750.326 30.3338C749.495 35.0522 750.436 39.485 753.235 43.3584C750.113 47.2871 747.556 51.4908 745.247 55.9366C739.867 38.2581 739.269 18.3136 739.442 0Z" transform="matrix(1, 0, 0, 1, 1.4210854715202004e-14, 0)"/>
  <path fill="#97B1B2" d="M1006.71 278.02C1009.04 277.934 1011.26 278.061 1013.35 279.197C1016.6 280.963 1017.7 284.148 1018.68 287.493C1018.3 289.543 1017.93 291.658 1016.96 293.529C1015.58 296.221 1013.31 297.163 1010.56 298.034C1008.82 298.052 1007.21 298.005 1005.57 297.353C1002.71 296.217 1000.35 294.138 999.194 291.25C998.214 288.791 998.264 286.031 999.436 283.645C1000.96 280.545 1003.56 279.085 1006.71 278.02Z" transform="matrix(1, 0, 0, 1, 1.4210854715202004e-14, 0)"/>
  <path fill="url(#gradient_0)" d="M380.868 753.191C380.988 753.179 381.108 753.163 381.229 753.155C395.552 752.186 410.429 753.215 424.806 753.233L519.111 753.301L601.291 753.183C614.68 753.15 629.177 751.948 642.413 753.309C648.027 753.886 652.919 755.902 657.27 759.536C663.882 765.058 667.266 772.194 667.894 780.739C668.803 793.104 664.661 806.859 662.502 819.014L646.422 904.63L638.453 947.832C637.203 954.41 636.237 961.214 634.499 967.672C633.538 971.239 632.284 973.662 629.871 976.476C625.874 980.298 621.174 983.506 615.487 983.931C604.77 984.733 593.401 983.748 582.622 983.731L507.736 983.698L437.902 983.969C426.794 983.98 415.052 984.771 404.039 983.617C398.995 983.088 394.322 981.839 390.499 978.312C387.944 975.955 386.209 973.209 385.212 969.89C382.428 960.618 381.07 950.561 379.108 941.064L366.415 878.01L354.291 816.021C352.413 805.948 349.771 795.443 349.255 785.219C348.932 778.824 353.021 770.683 356.993 765.758C362.991 758.32 371.46 754.195 380.868 753.191Z" transform="matrix(1, 0, 0, 1, 1.4210854715202004e-14, 0)"/>
  <path fill="#97B1B2" d="M363.083 770.89C368.839 764.458 375.849 761.095 384.488 760.613C400.134 759.741 416.29 760.585 431.98 760.567L534.666 760.578L602.746 760.567C615.082 760.538 628.026 759.571 640.256 760.952C644.997 761.487 649.123 763.732 652.606 766.929C657.471 771.396 661.361 777.867 661.441 784.61C661.535 792.548 658.8 802.728 657.407 810.698C653.014 835.835 647.892 860.86 643 885.903C640.599 898.197 638.523 910.504 635.854 922.751C635.033 926.515 634.522 930.938 633.204 934.533C632.324 944.758 631.228 960.326 626.421 969.48C624.398 973.333 621.308 976.107 617.01 977.151C610.745 978.673 597.534 977.665 590.504 977.612L535.619 977.214L459.863 977.574C443.294 977.721 426.72 978.213 410.159 977.483C405.758 977.289 401.521 977.12 397.66 974.69C395.211 973.148 393.612 970.664 392.532 968.029C388.477 958.135 387.091 945.559 385.231 935.053C383.745 926.662 381.964 918.375 380.163 910.05C373.957 881.354 368.754 852.397 363.204 823.565C361.369 814.031 356.834 797.665 356.79 788.55C356.757 781.93 359.602 776.293 363.083 770.89Z" transform="matrix(1, 0, 0, 1, 1.4210854715202004e-14, 0)"/>
  <path fill="#97B1B2" d="M509.319 846.214C515.874 846.337 522.254 848.062 527.679 851.83C533.884 856.138 538.261 862.781 539.497 870.27C540.791 878.114 538.794 886.118 534.088 892.496C528.49 900.082 521.067 903.035 512.126 904.466C503.743 904.719 495.942 903.03 489.513 897.253C483.872 892.184 480.655 885.15 480.178 877.616C479.682 869.783 482.256 861.921 487.478 856.032C493.353 849.406 500.757 846.802 509.319 846.214Z" transform="matrix(1, 0, 0, 1, 1.4210854715202004e-14, 0)"/>
  <path fill="#F3FAFB" d="M1024 614.345L1024 1024L635.71 1024C639.195 1023.07 642.19 1022.03 645.023 1019.71C649.247 1016.26 651.943 1011.11 652.422 1005.68C652.879 1000.5 651.225 995.336 647.753 991.447C643.166 986.309 637.126 984.807 630.542 984.366C637.692 977.199 640.496 971.602 642.516 961.587C657.187 957.84 671.908 951.813 685.856 945.977C716.584 933.123 746.829 917.31 774.236 898.309C786.215 890.004 797.663 880.635 808.733 871.164C863.65 824.183 905.503 766.507 936.659 701.52C943.558 687.129 948.86 672.124 954.912 657.379C957.216 659.575 959.629 660.801 962.727 661.57C973.638 664.279 986.441 661.431 995.94 655.727C1011.41 646.437 1019.81 631.433 1024 614.345Z" transform="matrix(1, 0, 0, 1, 1.4210854715202004e-14, 0)"/>
  <path fill="#97B1B2" d="M877.234 841.565C878.049 841.723 878.906 841.877 879.682 842.179C881.395 842.846 882.898 844.591 883.544 846.28C884.341 848.363 884.064 850.773 883.02 852.719C881.728 855.13 879.947 855.922 877.448 856.755C876.427 856.423 875.366 856.098 874.396 855.632C872.58 854.761 871.194 852.893 870.556 851.021C869.923 849.166 870.019 847.251 870.998 845.535C872.41 843.06 874.596 842.219 877.234 841.565Z" transform="matrix(1, 0, 0, 1, 1.4210854715202004e-14, 0)"/>
  <path fill="#F3FAFB" d="M395.862 311.2C408.558 308.705 428.454 314.401 439.893 319.867C464.605 331.675 484.531 354.79 493.88 380.399C497.169 389.408 498.82 398.962 502.032 408.01C504.653 401.946 505.764 395.341 507.7 389.035C514.044 368.372 524.668 350.163 541.155 335.951C559.836 319.847 584.034 310.076 608.91 311.946C637.186 314.072 665.143 329.919 683.452 351.256C708.995 381.024 718.693 417.818 715.699 456.403C712.491 497.757 691.638 537.307 660.225 564.152C651.404 571.556 641.984 578.139 631.593 583.158C590.365 603.069 543.816 602.762 501.16 587.917C489.782 592.836 479.252 595.689 466.916 597.15C423.092 602.338 378.261 589.228 343.809 561.82C312.477 536.894 291.896 498.516 287.448 458.782C283.487 423.402 293.368 383.838 315.825 355.859C336.317 330.327 363.095 314.861 395.862 311.2Z" transform="matrix(1, 0, 0, 1, 1.4210854715202004e-14, 0)"/>
  <path fill="teal" d="M397.832 335.21C406.846 334.023 417.423 335.506 426.21 337.569C454.519 344.218 477.894 363.112 492.087 388.282C495.917 395.075 497.948 403.006 501.961 409.509C504.144 404.944 505.766 400.217 507.875 395.638C513.917 382.527 522.216 371.159 532.955 361.512C552.557 343.904 578.009 334.204 604.466 335.658C631.694 337.156 657.253 349.769 675.271 370.229C692.681 389.999 701.956 416.83 700.075 443.175C698.312 467.858 687.338 492.481 668.46 508.8C649.877 524.863 626.374 531.665 602.053 529.797C573.869 527.919 547.283 513.874 526.931 494.814C519.209 510.418 511.153 525.159 500.731 539.167C493.115 528.849 484.299 509.697 478.003 497.763C476.488 499.664 474.968 501.563 473.403 503.424C458.108 521.609 432.987 531.75 409.694 533.699C384.152 535.836 359.153 528.387 339.561 511.732C318.323 493.678 305.299 469.342 303.154 441.426C301.164 415.529 309.412 389.756 326.482 370.101C344.432 349.433 370.684 337.056 397.832 335.21Z" transform="matrix(1, 0, 0, 1, 1.4210854715202004e-14, 0)"/>
  <path fill="#F3FAFB" d="M593.329 342.207C598.289 341.529 603.96 341.978 608.924 342.498C634.092 345.135 657.559 358.62 673.417 378.215C688.883 397.324 696.128 422.213 693.404 446.644C690.813 469.877 679.272 492.22 660.875 506.831C643.749 520.432 621.954 525.581 600.378 523.184C573.09 521.412 549.375 506.416 529.171 489.158C531.502 483.618 534.343 476.844 535.262 470.926C535.654 468.399 535.42 465.754 533.796 463.682C529.685 458.438 511.342 456.756 504.446 455.872C504.515 448.618 503.879 441.379 504.252 434.122C505.312 413.532 513.179 393.077 526.345 377.177C543.33 356.665 566.935 344.659 593.329 342.207Z" transform="matrix(1, 0, 0, 1, 1.4210854715202004e-14, 0)"/>
  <path fill="teal" d="M597.552 405.203C607.458 404.679 617.575 408.233 625.203 414.499C633.645 421.435 638.652 431.489 639.559 442.343C640.445 452.928 637.02 463.895 630.125 472.005C622.833 480.582 612.276 485.629 601.155 486.579C590.367 486.657 581.1 484.275 572.652 477.273C564.403 470.437 559.178 460.332 558.315 449.655C557.409 438.457 560.68 427.578 568.044 419.022C575.707 410.12 586.058 406.055 597.552 405.203Z" transform="matrix(1, 0, 0, 1, 1.4210854715202004e-14, 0)"/>
  <path fill="#F3FAFB" d="M606.703 418.554C608.644 418.479 610.807 418.262 612.681 418.854C616.209 419.967 619.249 422.586 620.784 425.96C622.216 429.103 622.266 432.711 620.88 435.877C619.189 439.74 615.851 442.124 611.987 443.504C609.587 443.585 607.31 443.677 605.037 442.78C601.621 441.431 598.826 438.791 597.523 435.325C596.333 432.158 596.475 428.626 597.984 425.59C599.857 421.821 602.863 419.925 606.703 418.554Z" transform="matrix(1, 0, 0, 1, 1.4210854715202004e-14, 0)"/>
  <path fill="#F3FAFB" d="M395.793 341.701C399.443 341.106 403.719 341.292 407.423 341.431C432.016 342.357 455.91 353.749 472.535 371.832C495.764 397.098 499.096 423.212 497.741 455.897C493.52 455.925 489.644 456.065 485.603 457.502C480.104 459.458 475.476 463.386 473.164 468.803C469.877 476.505 472.082 483.51 475.168 490.752L474.783 491.323C460.831 511.748 440.471 522.469 416.482 526.86C415.261 527.042 414.035 527.196 412.81 527.345C388.462 530.296 364.362 523.112 345.157 507.937C325.677 492.544 312.711 469.388 309.964 444.693C307.234 420.146 314.161 395.777 329.767 376.591C345.966 356.678 370.434 344.366 395.793 341.701Z" transform="matrix(1, 0, 0, 1, 1.4210854715202004e-14, 0)"/>
  <path fill="teal" d="M401.161 403.66C410.624 402.651 420.654 405.624 428.364 411.122C436.444 416.885 442.211 425.851 443.827 435.665C445.52 445.943 442.945 456.844 436.744 465.23C429.712 474.74 419.431 479.632 407.959 481.345C398.185 482.216 388.516 479.793 380.619 473.901C372.19 467.612 366.474 458.039 364.996 447.622C363.557 437.475 366.569 426.962 372.827 418.882C379.755 409.936 390.109 405.099 401.161 403.66Z" transform="matrix(1, 0, 0, 1, 1.4210854715202004e-14, 0)"/>
  <path fill="#F3FAFB" d="M412.593 415.116C414.774 414.802 416.943 414.682 419.078 415.33C422.73 416.44 425.833 419.121 427.46 422.57C429.047 425.935 429.146 429.921 427.703 433.353C426.177 436.982 423.365 439.151 419.784 440.52C417.227 440.697 414.78 440.869 412.303 440.031C409.034 438.925 406.241 436.582 404.733 433.464C403.22 430.335 403.13 426.685 404.341 423.441C405.873 419.334 408.763 416.976 412.593 415.116Z" transform="matrix(1, 0, 0, 1, 1.4210854715202004e-14, 0)"/>
  <path fill="#F3FAFB" d="M0 0L735.07 0C735.019 23.6473 736.59 48.5538 745.162 70.806L744.521 70.5038C736.858 66.8443 729.892 61.6859 722.378 57.7109C701.7 46.7722 680.466 37.0885 658.675 28.6029C636.364 19.9149 612.586 13.8871 589.081 9.46894C576.245 7.05609 563.422 4.77828 550.423 3.41557C487.7 -3.16023 422.636 4.67281 363.055 25.2137C281.358 53.379 209.923 102.975 153.212 168.035C146.153 176.133 139.237 184.441 132.776 193.027C129.491 197.391 126.639 202.172 123.26 206.429C134.579 166.184 151.714 125.939 176.422 92.0088C180.281 86.7092 184.265 80.954 188.897 76.3064C198.485 79.3086 207.686 79.7539 216.801 74.916C227.582 69.1942 236.136 57.5737 239.557 45.9942C242.175 37.1307 243.213 13.7669 238.538 5.6901C237.845 4.49293 237.248 3.8483 235.837 3.65485C233.635 3.35309 230.495 4.51693 228.375 5.19685C217.118 8.80754 206.299 14.1075 197.65 22.3067C188.662 30.8268 182.905 42.5206 182.649 54.9941C182.536 60.5008 183.55 65.9655 185.59 71.0777C175.096 85.2802 164.206 99 155.574 114.469L147.654 99.4418C151.607 93.5717 152.411 87.4563 151.028 80.5999C148.753 69.3214 141.252 60.0967 131.802 53.9007C126.985 50.7428 118.102 45.3329 112.214 45.8388C110.34 46.7001 109.558 47.8182 108.854 49.7171C104.948 60.2469 106.544 75.6802 111.462 85.6422C115.16 93.1341 121.493 99.6467 129.579 102.251C134.835 103.944 139.394 103.389 144.58 101.847C147.098 107.815 149.571 113.799 152.398 119.629C140.34 141.201 130.442 164.798 122.824 188.271C119.657 198.028 117.491 210.003 113.735 219.18C110.968 225.939 106.247 232.113 102.419 238.34C97.5858 246.201 93.0198 254.253 88.7047 262.408C82.5031 254.636 76.1611 246.952 68.9438 240.09C72.1618 230.612 72.2408 222.232 67.727 213.15C61.9789 201.585 50.1926 194.046 38.2228 190.147C27.2669 186.58 12.2413 185.003 1.00809 188.112C0.996133 205.542 8.42203 222.158 20.7729 234.425C28.9363 242.533 40.4731 249.066 52.278 248.817C57.5926 248.706 62.0745 246.949 66.6713 244.405C73.8057 251.759 79.5629 259.727 86.1193 267.525C72.9191 297.057 60.3702 326.313 50.9704 357.346C19.9182 459.862 22.8847 569.339 61.2559 669.49C97.7324 764.695 162.654 849.838 248.496 905.705C269.221 919.193 291.922 931.046 314.511 941.073C334.697 950.034 355.896 957.813 377.289 963.383C378.793 972.247 381.276 977.741 388.109 983.769C381.602 984.181 375.987 985.524 371.37 990.535C367.715 994.502 365.935 999.767 366.312 1005.14C366.695 1010.59 369.302 1015.44 373.444 1018.97C376.303 1021.41 379.509 1022.78 383.016 1024L0 1024L0 0Z" transform="matrix(1, 0, 0, 1, 1.4210854715202004e-14, 0)"/>
  <path fill="teal" d="M273.034 968.982C273.684 969.009 274.337 969.037 274.983 969.118C276.613 969.322 278.286 970.262 279.153 971.701C279.967 973.051 280.216 974.44 279.807 975.978C279.169 978.379 277.553 979.419 275.492 980.568C274.403 980.492 273.252 980.427 272.194 980.15C270.683 979.754 269.338 978.419 268.678 977.027C268.006 975.608 268.06 973.988 268.706 972.572C269.623 970.564 271.139 969.838 273.034 968.982Z" transform="matrix(1, 0, 0, 1, 1.4210854715202004e-14, 0)"/>
  <path fill="#97B1B2" d="M19.6608 651.055C21.0358 651.193 22.4116 651.311 23.6679 651.932C25.7112 652.943 27.3776 654.739 28.0666 656.927C28.7724 659.169 28.4655 661.603 27.282 663.629C25.741 666.266 23.4973 667.247 20.6606 667.99C19.0632 667.898 17.5551 667.662 16.1262 666.894C14.1452 665.831 12.6857 664.08 12.1515 661.881C11.5962 659.594 12.0006 657.232 13.2353 655.232C14.7568 652.769 16.957 651.759 19.6608 651.055Z" transform="matrix(1, 0, 0, 1, 1.4210854715202004e-14, 0)"/>
  <path fill="#97B1B2" d="M97.4472 836.568C99.4698 836.286 101.374 836.086 103.338 836.797C105.669 837.64 107.718 839.515 108.735 841.777C109.637 843.784 109.736 846.138 108.926 848.19C107.829 850.97 105.836 852.403 103.222 853.64C101.986 853.732 100.721 853.776 99.4864 853.63C96.9378 853.33 94.4296 851.824 92.9803 849.707C91.6706 847.794 91.2564 845.406 91.7724 843.152C92.5357 839.819 94.6546 838.25 97.4472 836.568Z" transform="matrix(1, 0, 0, 1, 1.4210854715202004e-14, 0)"/>
  <path fill="#97B1B2" d="M164.117 927.084C165.795 927.003 167.379 927.066 169.003 927.556C171.773 928.393 174.126 930.494 175.352 933.104C176.619 935.802 176.661 939.03 175.494 941.768C174.073 945.101 171.651 946.723 168.378 947.981C166.205 948.085 164.134 948.182 162.1 947.287C159.56 946.169 157.509 943.97 156.545 941.374C155.529 938.635 155.611 935.492 156.905 932.858C158.424 929.764 160.917 928.102 164.117 927.084Z" transform="matrix(1, 0, 0, 1, 1.4210854715202004e-14, 0)"/>
  <path fill="#F3FAFB" d="M84.7496 708.516C27.1209 588.906 20.2933 461.501 64.0577 336.161C73.808 308.236 85.7504 280.108 100.017 254.176C148.362 166.304 224.676 94.7813 314.923 51.3526C417.893 1.8012 541.06 -6.27975 649.103 31.7872C770.056 74.4031 871.075 168.218 926.222 283.508C948.579 330.248 963.559 379.338 971.12 430.598C973.225 444.869 975.159 459.214 975.306 473.664C967.413 483.274 961.008 494.058 962.1 507.005C962.532 512.137 964.416 516.379 967.011 520.763C966.899 520.865 966.785 520.964 966.675 521.068C962.014 525.483 958.268 532.512 954.512 537.787C946.373 549.218 938.169 560.624 929.275 571.483C921.585 580.87 913.793 590.277 905.335 598.987C869.571 635.813 826.169 662.032 781.043 685.703C777.159 679.927 771.515 669.483 765.974 665.576L764.968 665.489C764.402 666.446 764.505 666.565 764.793 667.607C766.35 673.241 773.536 682.183 776.339 688.095C761.884 694.808 748.295 703.304 734.285 710.87C736.709 673.28 735.361 642.79 721.579 607.174C716.219 593.324 709.334 579.745 700.667 567.666C724.995 546.293 746.416 505.676 749.843 473.473L750.889 465.02C755.28 419.629 743.563 373.151 717.348 335.788C735.186 310.912 739.469 277.776 739.064 247.842C739.031 245.428 739.047 243.358 737.24 241.611C736.142 241.471 735.461 241.255 734.421 241.755C730.88 243.456 724.19 250.113 720.442 252.895C702.96 265.874 682.094 274.717 661.359 280.991C628.726 260.59 602.185 250.559 564.508 242.305C561.38 241.695 558.283 241.174 555.118 240.796C485.16 229.427 411.939 242.432 352.149 281.095C326.757 273.712 299.867 267.143 278.837 250.192C273.385 245.798 268.721 240.736 263.94 235.649C259.552 267.945 265.908 309.936 282.346 338.272C265.587 365.179 252.926 401.372 252.433 433.305C252.452 440.46 252.08 447.946 252.859 455.049C257.53 498.418 272.69 532.183 302.236 564.409C282.622 597.14 270.891 632.16 269.229 670.411C268.833 679.515 268.578 689.229 270.279 698.189C258.142 689.942 244.976 683.537 231.896 676.952C221.342 651.756 216.044 629.983 216.51 602.633C226.596 601.566 236.007 596.78 242.428 588.846C250.663 578.672 252.542 565.459 251.125 552.772C249.751 540.468 242.254 519.434 232.358 511.479C231.099 510.467 229.7 509.744 228.242 509.068C213.515 515.165 197.104 533.648 191.052 548.215C186.678 558.744 185.711 571.399 190.145 582.071C194.039 591.444 201.226 597.729 210.412 601.697C210.68 626.953 214.291 649.713 223.942 673.188C199.057 661.151 173.988 649.453 151.889 632.585C145.449 615.163 145.42 593.644 145.513 575.258C152.557 573.201 159.087 569.125 162.581 562.419C168.669 550.732 167.348 537.116 163.235 525.037C160.857 518.056 155.819 506.596 148.849 503.207C147.012 502.314 145.121 502.051 143.178 502.737C135.603 505.412 128.036 519.706 125.017 526.687C120.521 537.083 118.316 549.874 122.824 560.652C125.441 566.909 130.724 572.552 137.066 575.1C138.014 575.481 138.963 575.732 139.954 575.97C139.867 593.026 140.263 610.658 144.494 627.287C135.549 618.79 126.281 610.565 119.666 600.034C121.131 588.895 119.901 579.019 112.853 569.925C102.333 556.351 82.7428 549.054 66.1786 547.055C63.1007 546.684 59.1158 546.347 56.536 548.415C54.0295 550.424 53.2258 553.785 53.0629 556.848C52.2519 572.1 60.2062 592.221 70.5428 603.351C77.3258 610.654 86.5627 615.85 96.6638 616.225C99.7644 616.34 102.562 615.897 105.552 615.132L148.122 652.986C154.429 658.586 161.09 663.942 167.201 669.743C160.237 672.786 153.063 675.332 146.016 678.179C130.751 684.344 115.933 690.814 101.442 698.646C95.7933 701.699 89.9504 704.734 84.7496 708.516Z" transform="matrix(1, 0, 0, 1, 1.4210854715202004e-14, 0)"/>
  <path fill="#97B1B2" d="M108.653 333.981C109.367 334.121 109.509 334.129 110.26 334.381C111.926 334.938 113.404 336.352 114.036 337.983C114.556 339.326 114.522 340.756 113.929 342.069C113.066 343.978 111.781 344.778 109.895 345.52C109.018 345.372 108.093 345.233 107.253 344.937C105.618 344.362 104.205 342.903 103.659 341.274C103.222 339.969 103.33 338.615 103.962 337.401C105.007 335.39 106.589 334.654 108.653 333.981Z" transform="matrix(1, 0, 0, 1, 1.4210854715202004e-14, 0)"/>
  <path fill="teal" d="M831.53 556.505C832.479 556.409 833.409 556.346 834.361 556.443C836.267 556.637 837.964 557.642 839.076 559.209C840.086 560.632 840.383 562.367 840.014 564.063C839.459 566.61 838.061 567.685 835.937 569.006C835.183 569.069 834.423 569.088 833.668 569.033C831.713 568.889 829.805 567.939 828.589 566.382C827.551 565.053 827.19 563.356 827.497 561.706C827.978 559.119 829.462 557.939 831.53 556.505Z" transform="matrix(1, 0, 0, 1, 1.4210854715202004e-14, 0)"/>
  <path fill="teal" d="M839.509 448.526C840.35 448.492 841.193 448.449 842.033 448.54C843.945 448.745 845.566 449.715 846.715 451.254C847.8 452.707 848.192 454.467 847.815 456.24C847.299 458.661 845.859 459.969 843.873 461.28C843.15 461.368 842.442 461.437 841.712 461.394C839.765 461.279 837.889 460.551 836.625 459.014C835.587 457.751 835.22 456.129 835.39 454.528C835.697 451.635 837.31 450.202 839.509 448.526Z" transform="matrix(1, 0, 0, 1, 1.4210854715202004e-14, 0)"/>
  <path fill="teal" d="M81.5445 461.993C82.5993 461.99 83.5624 462.009 84.5839 462.304C86.681 462.909 88.5227 464.426 89.5189 466.369C90.5402 468.361 90.6386 470.6 89.9262 472.712C89.0047 475.444 87.004 476.75 84.5186 477.935C83.4417 477.847 82.3017 477.735 81.2674 477.41C79.4194 476.829 77.5935 475.336 76.6774 473.63C75.7262 471.859 75.6272 469.754 76.2128 467.85C77.0914 464.994 79.0482 463.428 81.5445 461.993Z" transform="matrix(1, 0, 0, 1, 1.4210854715202004e-14, 0)"/>
  <path fill="teal" d="M214.521 183.044C215.714 182.998 216.985 182.915 218.156 183.184C220.388 183.697 222.499 185.242 223.671 187.204C224.841 189.162 225.091 191.579 224.429 193.754C223.494 196.827 221.381 198.274 218.669 199.707C217.664 199.825 216.638 199.944 215.631 199.788C213.436 199.448 211.268 198.254 210.012 196.392C208.685 194.426 208.416 191.993 208.92 189.71C209.667 186.322 211.679 184.748 214.521 183.044Z" transform="matrix(1, 0, 0, 1, 1.4210854715202004e-14, 0)"/>
  <path fill="teal" d="M368.763 71.4903C370.171 71.5118 371.636 71.7736 372.955 72.2834C375.132 73.1251 377.135 74.8902 378.085 77.0377C379.172 79.4932 379.052 82.1685 378.009 84.6127C376.609 87.894 374.306 89.1035 371.136 90.379C369.66 90.237 368.224 90.0337 366.832 89.4959C364.355 88.5394 362.282 86.561 361.29 84.0917C360.428 81.9441 360.507 79.5157 361.454 77.4087C362.917 74.1547 365.553 72.6709 368.763 71.4903Z" transform="matrix(1, 0, 0, 1, 1.4210854715202004e-14, 0)"/>
  <path fill="#97B1B2" d="M917.391 375.064C919.06 374.897 920.736 374.699 922.385 375.11C924.915 375.74 927.216 377.491 928.427 379.805C929.614 382.071 929.714 384.733 928.899 387.138C927.769 390.475 925.65 392.195 922.629 393.775C921.22 393.892 919.834 394.005 918.448 393.647C915.624 392.918 912.989 390.974 911.631 388.372C910.464 386.136 910.206 383.45 911.088 381.071C912.239 377.966 914.512 376.41 917.391 375.064Z" transform="matrix(1, 0, 0, 1, 1.4210854715202004e-14, 0)"/>
  <path fill="#97B1B2" d="M680.924 92.0542C682.61 91.9176 684.33 91.8108 686.002 92.149C688.777 92.7102 691.381 94.6093 692.781 97.0626C694.314 99.7482 694.535 102.957 693.543 105.867C692.303 109.507 689.903 111.552 686.59 113.276C684.975 113.479 683.178 113.583 681.58 113.207C678.932 112.584 676.579 110.784 675.214 108.441C673.668 105.788 673.356 102.57 674.225 99.6411C675.323 95.9435 677.639 93.8413 680.924 92.0542Z" transform="matrix(1, 0, 0, 1, 1.4210854715202004e-14, 0)"/>
  <path fill="#97B1B2" d="M358.593 175.487C361.776 136.89 377.871 100.23 407.879 74.8533C439.535 48.0834 481.758 34.4144 523.057 38.0464C561.109 41.3928 600.712 61.1302 625.179 90.662C643.052 112.234 655.555 137.817 658.25 165.932C700.982 155.58 743.84 161.203 781.543 184.367C818.106 206.831 845.377 243.505 855.219 285.397C865.178 327.789 857.463 372.376 834.429 409.296C820.161 432.164 799.171 451.849 774.843 463.448C766.704 467.329 757.923 469.648 749.843 473.473L750.889 465.02C754.657 463.553 758.354 461.965 762.029 460.281C770.726 456.299 779.397 452.054 787.385 446.766C812.817 429.931 831.399 404.044 841.84 375.572C855.371 338.67 853.929 294.658 837.441 259.003C820.38 222.108 788.857 192.498 750.628 178.499C710.857 163.936 670.033 167.32 631.923 185.018C608.256 196.009 573.776 217.015 564.508 242.305C561.38 241.695 558.283 241.174 555.118 240.796C556.945 239.657 563.471 226.313 566.435 222.787C588.431 196.617 618.828 180.223 650.263 167.949C648.687 157.927 646.865 148.259 643.543 138.628C634.823 113.354 616.657 89.924 595.076 74.2468C562.725 50.7453 523.611 41.607 484.103 47.8782C449.565 53.3605 412.62 75.2445 392.122 103.852C380.216 120.468 371.468 141.031 367.887 161.094C366.488 168.93 366.004 176.855 365.46 184.784C332.214 177.992 299.514 182.219 270.831 201.162C245.874 217.643 228.196 243.12 222.317 272.543C219.555 286.365 219.484 300.964 221.786 314.856C198.55 310.431 178.849 310.814 158.596 324.587C142.103 335.803 130.406 352.002 126.749 371.753C123.089 391.521 127.421 411.821 138.844 428.353C150.523 445.255 169.094 457.473 189.35 461.121C210.533 464.937 232.403 459.989 250.053 447.594C250.742 447.11 251.426 446.622 252.097 446.114C251.976 441.984 251.55 437.374 252.433 433.305C252.452 440.46 252.08 447.946 252.859 455.049L252.153 455.361C246.246 458.006 240.832 461.587 234.775 464.146C215.631 472.231 193.309 472.527 173.807 465.342C152.489 457.489 134.947 441.475 125.499 420.816C116.569 401.289 114.592 377.51 122.314 357.228C130.199 336.516 146.68 319.667 166.916 310.831C181.704 304.373 197.13 303.453 212.995 305.221C209.803 275.268 219.23 243.758 238.067 220.284C258.983 194.22 289.409 177.623 322.633 174.115C334.696 172.842 346.65 173.498 358.593 175.487Z" transform="matrix(1, 0, 0, 1, 1.4210854715202004e-14, 0)"/>
  <path fill="#F3FAFB" d="M564.508 242.305C573.776 217.015 608.256 196.009 631.923 185.018C670.033 167.32 710.857 163.936 750.628 178.499C788.857 192.498 820.38 222.108 837.441 259.003C853.929 294.658 855.371 338.67 841.84 375.572C831.399 404.044 812.817 429.931 787.385 446.766C779.397 452.054 770.726 456.299 762.029 460.281C758.354 461.965 754.657 463.553 750.889 465.02C755.28 419.629 743.563 373.151 717.348 335.788C735.186 310.912 739.469 277.776 739.064 247.842C739.031 245.428 739.047 243.358 737.24 241.611C736.142 241.471 735.461 241.255 734.421 241.755C730.88 243.456 724.19 250.113 720.442 252.895C702.96 265.874 682.094 274.717 661.359 280.991C628.726 260.59 602.185 250.559 564.508 242.305Z" transform="matrix(1, 0, 0, 1, 1.4210854715202004e-14, 0)"/>
  <path fill="#F3FAFB" d="M365.46 184.784C366.004 176.855 366.488 168.93 367.887 161.094C371.468 141.031 380.216 120.468 392.122 103.852C412.62 75.2445 449.565 53.3605 484.103 47.8782C523.611 41.607 562.725 50.7453 595.076 74.2468C616.657 89.924 634.823 113.354 643.543 138.628C646.865 148.259 648.687 157.927 650.263 167.949C618.828 180.223 588.431 196.617 566.435 222.787C563.471 226.313 556.945 239.657 555.118 240.796C485.16 229.427 411.939 242.432 352.149 281.095C326.757 273.712 299.867 267.143 278.837 250.192C273.385 245.798 268.721 240.736 263.94 235.649C259.552 267.945 265.908 309.936 282.346 338.272C265.587 365.179 252.926 401.372 252.433 433.305C251.55 437.374 251.976 441.984 252.097 446.114C251.426 446.622 250.742 447.11 250.053 447.594C232.403 459.989 210.533 464.937 189.35 461.121C169.094 457.473 150.523 445.255 138.844 428.353C127.421 411.821 123.089 391.521 126.749 371.753C130.406 352.002 142.103 335.803 158.596 324.587C178.849 310.814 198.55 310.431 221.786 314.856C219.484 300.964 219.555 286.365 222.317 272.543C228.196 243.12 245.874 217.643 270.831 201.162C299.514 182.219 332.214 177.992 365.46 184.784Z" transform="matrix(1, 0, 0, 1, 1.4210854715202004e-14, 0)"/>
  <path fill="teal" d="M368.841 202.901C370.999 203.046 373.156 203.262 374.556 205.168C375.369 206.275 375.707 207.298 375.483 208.678C375.117 210.931 373.699 211.842 371.94 213.015C370.17 212.771 368.268 212.471 367.006 211.054C366.015 209.941 365.653 209.04 365.742 207.543C365.866 205.45 367.372 204.159 368.841 202.901Z" transform="matrix(1, 0, 0, 1, 1.4210854715202004e-14, 0)"/>
  <path fill="#97B1B2" d="M228.053 395.557C229.16 395.373 230.417 395.231 231.535 395.341C233.139 395.498 234.672 396.552 235.659 397.784C236.689 399.069 237.09 400.56 236.797 402.192C236.421 404.282 235.312 405.349 233.703 406.562C233.234 406.627 232.765 406.701 232.293 406.73C230.344 406.846 228.367 406.315 226.912 404.976C225.741 403.897 225.105 402.379 225.174 400.785C225.275 398.452 226.447 397.115 228.053 395.557Z" transform="matrix(1, 0, 0, 1, 1.4210854715202004e-14, 0)"/>
  <path fill="#97B1B2" d="M464.947 94.0111C466.123 93.8755 467.287 93.7775 468.468 93.9334C470.105 94.1497 471.593 95.1579 472.57 96.4716C473.548 97.7857 473.888 99.3606 473.604 100.965C473.168 103.433 471.695 104.749 469.754 106.16C468.906 106.227 468.055 106.301 467.203 106.254C465.486 106.16 463.864 105.182 462.777 103.875C461.536 102.384 461.108 100.533 461.447 98.6347C461.865 96.2917 463.124 95.3313 464.947 94.0111Z" transform="matrix(1, 0, 0, 1, 1.4210854715202004e-14, 0)"/>
  <path fill="teal" d="M513.496 179.415C514.004 179.454 513.976 179.441 514.573 179.549C516.918 179.975 519.508 181.041 520.712 183.252C521.474 184.651 521.648 186.177 521.159 187.697C520.367 190.162 518.438 191.236 516.277 192.38C515.99 192.348 515.704 192.313 515.418 192.269C513.018 191.901 511.074 191.074 509.684 188.978C508.799 187.643 508.545 185.965 508.95 184.421C509.594 181.962 511.408 180.631 513.496 179.415Z" transform="matrix(1, 0, 0, 1, 1.4210854715202004e-14, 0)"/>
  <path stroke="#F3FAFB" stroke-width="0" d="M 139.662 503.096 C 143.038 502.627 146.912 502.341 151.029 502.229 C 152.32 500.112 153.939 498.193 155.303 497.013 C 157.369 495.226 158.455 494.492 162.255 494.407 C 169.774 494.236 189.583 498.267 202.226 503.096 C 204.987 504.151 207.978 505.398 211.029 506.772 C 210.568 504.964 210.339 503.291 210.481 501.792 C 210.939 496.945 214.44 493.144 216.998 490.931 C 219.063 489.144 221.059 488.164 223.949 488.324 C 227.931 488.544 235.176 490.645 239.156 494.841 C 243.874 499.816 246.506 507.774 248.714 518.302 C 251.868 533.342 254.073 566.964 252.19 579.997 C 251.077 587.69 249.079 592.125 245.673 595.203 C 244.066 596.655 241.827 597.659 239.519 598.223 C 240.63 620.994 240.971 654.557 240.462 667.759 C 240.312 671.656 240.231 674.488 240.058 676.892 C 240.69 676.928 241.334 677.007 241.993 677.142 C 243.85 677.523 245.864 678.19 247.856 679.361 C 250.182 680.727 252.346 683.462 254.987 685.224 C 257.759 687.073 261.979 688.62 264.178 690.136 C 265.763 691.229 266.584 691.925 267.585 693.226 C 268.705 694.683 269.884 696.724 270.437 698.614 C 270.982 700.477 271.141 702.541 270.913 704.477 C 270.68 706.45 269.956 708.637 269.011 710.34 C 268.123 711.941 266.939 713.329 265.521 714.479 C 266.603 715.365 267.041 715.859 267.948 716.831 C 269.235 718.209 270.653 719.844 271.751 721.585 C 272.881 723.375 273.684 725.253 274.604 727.448 C 275.647 729.938 277.14 733.502 277.615 735.847 C 277.979 737.646 278.01 738.813 277.773 740.442 C 277.506 742.274 276.817 744.602 275.871 746.306 C 274.968 747.934 273.757 749.344 272.306 750.505 C 270.795 751.714 268.824 752.803 266.918 753.357 C 265.02 753.909 262.87 754.066 260.897 753.833 C 258.907 753.597 256.755 752.892 255.033 751.931 C 253.361 750.998 252.042 750.051 250.676 748.207 C 248.86 745.758 247.775 740 245.684 737.669 C 244.005 735.797 242.336 736.031 239.821 734.342 C 235.979 731.761 227.286 725.883 224.371 722.536 C 222.504 720.393 222.065 718.742 221.518 716.831 C 221.307 716.095 221.168 715.337 221.086 714.583 C 217.835 716.067 214.256 716.336 211.353 715.985 C 209.145 715.718 206.805 714.777 204.8 713.448 C 201.995 713.471 199.111 713.353 196.578 715.116 C 190.457 719.379 187.254 733.363 179.633 738.578 C 171.845 743.907 157.371 747.063 150.09 746.398 C 144.851 745.919 141.304 743.146 138.359 739.881 C 137.676 739.123 137.06 738.337 136.503 737.502 C 135.232 737.608 133.937 737.587 132.81 737.451 C 130.998 737.233 129.4 736.735 127.808 735.851 C 126.086 734.894 124.358 733.62 122.906 731.749 C 122.813 731.629 122.719 731.505 122.625 731.377 C 121.954 731.673 121.263 731.919 120.561 732.108 C 120.56 732.108 120.559 732.108 120.559 732.109 C 121.615 735.493 122.525 739.28 124.483 741.92 C 127.981 746.637 133.866 747.169 138.285 753.818 C 145.058 764.011 154.924 791.877 157.321 803.313 C 158.094 807.003 158.369 809.923 158.284 812.46 C 159.608 812.832 161.02 813.361 162.527 814.1 C 171.754 818.625 184.064 833.282 200.053 843.967 C 220.762 857.805 257.674 874.187 279.698 889.15 C 298.212 901.728 311.293 917.245 325.648 926.676 C 337.683 934.583 354.567 937.768 359.727 943.907 C 360.284 944.57 360.741 945.254 361.11 945.951 C 363.22 946.001 365.882 946.359 367.717 947.101 C 369.729 947.914 371.373 949.212 372.764 950.814 C 374.231 952.504 375.426 955.112 376.192 957.1 C 376.859 958.832 377.153 960.497 377.335 962.051 C 377.499 963.464 377.6 964.576 377.335 966.051 C 377.017 967.816 376.136 970.352 375.24 971.955 C 374.466 973.338 373.715 974.268 372.478 975.288 C 371.016 976.494 368.8 977.892 366.764 978.526 C 364.736 979.158 362.366 979.36 360.289 979.097 C 358.242 978.839 356.062 977.963 354.385 977.002 C 352.835 976.115 351.673 975.17 350.48 973.669 C 349.378 972.282 348.108 970.218 347.275 968.276 C 345.783 968.36 344.189 968.286 342.496 968.03 C 334.867 966.878 323.838 958.871 313.394 955.011 C 302.244 950.89 285.504 948.317 277.401 944.289 C 271.913 941.562 269.245 938.256 266.296 935.482 C 263.873 933.203 263.448 930.541 260.553 928.973 C 256.821 926.952 250.551 928.063 244.47 925.91 C 236.709 923.16 226.523 918.046 217.667 912.125 C 208.001 905.663 197.511 896.495 188.948 888.001 C 180.746 879.865 174.249 869.774 167.122 862.346 C 160.749 855.704 150.784 847.413 148.36 845.115 C 147.553 844.351 147.846 844.697 147.211 843.967 C 145.701 842.23 139.91 836.529 138.404 832.862 C 137.928 831.704 137.587 830.543 137.39 829.387 C 132.742 828.183 128.954 824.581 124.007 819.494 C 116.635 811.91 105.991 792.094 98.784 784.752 C 93.964 779.841 89.32 779.659 85.935 775.71 C 82.439 771.631 79.948 766.686 78.32 760.481 C 76.343 752.945 78.034 737.831 76.416 732.878 C 75.573 730.296 74.265 729.737 73.085 728.595 C 72.03 727.574 71.394 728.199 69.754 726.215 C 65.34 720.877 49.992 696.132 45.006 684.335 C 41.276 675.51 40.271 669.515 39.295 661.491 C 38.27 653.06 41.451 643.968 39.295 634.84 C 36.894 624.673 26.728 612.249 24.066 603.43 C 22.059 596.78 20.864 592.148 22.163 586.297 C 22.898 582.983 25.043 578.668 27.415 574.783 C 22.866 567.145 17.229 545.528 15.5 534.582 C 14.132 525.923 14.162 519.984 15.5 512.69 C 16.897 505.072 22.756 496.78 24.066 489.846 C 25.178 483.963 24.843 479.52 24.066 473.665 C 23.178 466.971 19.489 459.725 18.355 451.773 C 17.11 443.044 16.343 432.77 17.404 423.219 C 18.491 413.418 20.605 404.279 25.018 393.712 C 30.282 381.11 43.578 367.477 48.814 352.784 C 54.087 337.986 51.543 318.219 56.428 305.193 C 59.845 296.08 67.801 285.897 71.95 280.698 C 71.395 279.049 70.96 277.178 70.699 275.285 C 68.58 274.838 66.126 273.827 64.235 272.697 C 62.222 271.494 60.828 270.053 58.988 268.128 C 58.823 267.955 58.653 267.778 58.479 267.596 C 57.331 269.049 56.17 270.355 55.096 271.343 C 53.251 273.041 51.766 273.991 49.68 274.728 C 47.416 275.528 44.32 276.007 41.895 275.743 C 39.599 275.494 37.192 274.403 35.464 273.374 C 33.967 272.482 32.929 271.472 31.91 270.158 C 30.815 268.745 29.766 266.85 29.203 265.081 C 29.048 264.594 28.921 264.089 28.82 263.577 C 28.443 263.689 28.064 263.791 27.679 263.897 C 25.851 264.398 24.139 264.519 22.264 264.235 C 20.205 263.923 17.56 262.895 15.833 261.866 C 14.336 260.974 13.609 260.572 12.279 258.65 C 9.917 255.238 6.123 247.17 3.817 240.373 C 1.274 232.88 -0.948 221.962 -1.937 215.325 C -2.663 210.454 -2.879 208.152 -2.614 203.479 C -2.278 197.541 -1.147 187.406 0.771 182.155 C 2.196 178.252 3.788 175.47 6.355 173.524 C 8.922 171.578 13.099 170.515 16.171 170.477 C 18.991 170.443 21.983 173.574 24.125 172.847 C 26.274 172.117 26.823 167.705 29.033 166.077 C 31.341 164.377 35.023 163.262 37.834 163.031 C 40.42 162.818 43.131 163.409 45.28 164.385 C 46.928 165.133 48.413 166.349 49.656 167.649 C 51.368 167.012 53.213 166.543 54.757 166.416 C 57.344 166.203 60.055 166.793 62.204 167.77 C 64.256 168.701 66.15 170.508 67.45 172 C 68.576 173.293 69.034 174.054 69.82 176.062 C 71.07 179.257 72.773 184.802 73.543 190.617 C 74.508 197.904 74.568 208.86 74.22 217.018 C 74.097 219.912 73.887 222.798 73.608 225.592 C 74.106 225.85 74.602 226.143 75.093 226.465 C 77.96 220.979 83.148 214.71 86.411 211.439 C 88.832 209.011 90.778 208.812 93.193 207.195 C 92.223 205.133 91.819 202.789 92.171 199.916 C 92.895 194.008 98.914 183.785 102.792 176.973 C 106.334 170.753 111.323 166.035 114.263 160.404 C 117.024 155.117 117.858 149.189 120.212 144.259 C 122.431 139.609 125.86 136.495 127.859 131.513 C 130.123 125.869 134.29 114.198 132.533 111.757 C 131.251 109.977 126.506 113.711 123.398 113.032 C 119.868 112.26 115.182 109.957 112.564 106.446 C 109.542 102.393 108.663 96.146 107.466 89.027 C 105.926 79.87 104.513 62.725 105.341 55.038 C 105.864 50.191 107.013 47.752 108.74 44.841 C 110.392 42.058 112.605 39.49 115.326 37.831 C 118.156 36.105 122.225 34.757 125.522 34.857 C 128.734 34.955 132.413 37.9 134.869 38.256 C 136.621 38.51 137.403 37.641 139.118 37.831 C 141.415 38.086 144.814 38.812 147.615 40.38 C 150.843 42.188 154.702 46.011 157.174 48.665 C 159.223 50.863 160.416 52.38 161.848 55.038 C 163.594 58.28 164.054 65.681 166.521 67.147 C 168.579 68.369 172.245 67.593 174.594 65.447 C 178.004 62.332 183.436 50.312 182.666 46.116 C 182.123 43.156 177.424 43.034 175.868 40.593 C 174.222 38.008 173.072 34.067 173.319 30.821 C 173.574 27.481 175.212 23.467 177.568 20.837 C 180.02 18.099 183.874 16.627 187.977 14.889 C 192.776 12.855 199.78 12.215 204.971 9.79 C 210.022 7.432 215.728 3.211 218.779 0.656 C 220.815 -1.049 220.98 -2.614 222.816 -3.805 C 224.972 -5.205 228.595 -6.544 231.313 -6.779 C 233.817 -6.996 236.33 -6.501 238.536 -5.505 C 240.803 -4.48 243.193 -2.866 244.696 -0.619 C 246.365 1.876 246.174 6.17 247.67 9.153 C 249.155 12.114 252.413 14.199 253.618 17.225 C 254.836 20.282 255.222 24.235 254.893 27.422 C 254.58 30.445 253.339 33.163 251.919 35.919 C 250.416 38.836 247.634 40.83 245.971 44.416 C 243.934 48.809 243.755 56.304 241.297 60.986 C 239.023 65.317 236.318 68.332 232.163 71.82 C 227.047 76.114 217.508 81.309 211.769 84.141 C 207.403 86.296 203.261 86.328 200.51 88.39 C 198.132 90.173 198.013 93.574 195.624 95.187 C 192.918 97.016 186.73 98.174 184.578 98.161 C 183.448 98.155 183.564 96.643 182.454 97.312 C 178.844 99.487 165.538 121.43 158.874 134.062 C 158.28 135.188 157.71 136.326 157.159 137.475 C 161.798 135.023 166.025 132.657 168.743 130.058 C 173.682 125.336 174.522 119.864 177.785 116.257 C 180.612 113.132 184.352 111.494 186.828 109.118 C 188.979 107.053 188.996 105.498 192.063 102.931 C 197.533 98.351 215.311 89.183 221.093 84.371 C 224.539 81.503 224.154 79.945 227.28 77.232 C 231.918 73.206 238.617 67.703 248.22 62.955 C 261.74 56.27 289.666 50.557 304.377 42.966 C 316.141 36.897 320.964 28.609 331.98 22.978 C 344.535 16.561 367.626 9.501 376.716 7.749 C 381.211 6.883 383.073 6.88 385.708 7.599 C 394.64 0.965 407.786 -7.372 418.384 -11.287 C 432.197 -16.39 447.171 -16.975 462.168 -17.95 C 477.605 -18.953 496.818 -19.042 509.759 -16.998 C 519.996 -15.382 531.334 -11.71 534.983 -8.908 C 536.808 -7.506 535.105 -5.488 536.886 -4.625 C 540.157 -3.038 550.51 -6.432 558.302 -5.576 C 567.272 -4.592 577.72 0.761 587.809 2.038 C 598.02 3.331 611.086 0.092 619.219 2.038 C 625.555 3.554 631.065 6.225 633.972 10.129 C 634.226 10.47 634.463 10.837 634.684 11.225 C 649.507 14.67 681.854 25.626 691.557 30.17 C 697.377 32.895 699.044 34.6 701.551 37.308 C 703.802 39.74 702.929 42.734 706.31 45.399 C 711.327 49.353 724.365 52.101 734.773 56.615 C 734.079 54.14 734.8 50.612 733.949 47.707 C 733.056 44.66 730.359 42.212 729.379 38.775 C 728.28 34.921 729.719 29.456 728.133 25.48 C 726.541 21.49 721.376 17.96 719.823 14.886 C 718.685 12.632 718.64 10.767 718.369 8.861 C 718.12 7.114 718.097 4.84 718.161 3.876 C 718.195 3.378 717.65 3.207 718.369 2.941 C 719.016 2.702 721.22 2.508 724.507 2.356 C 725.507 0.616 727.179 -1.033 728.444 -2.114 C 729.506 -3.021 730.332 -3.482 731.56 -3.983 C 732.971 -4.559 734.682 -5.174 736.546 -5.23 C 738.699 -5.294 741.625 -4.961 743.816 -3.983 C 746.027 -2.997 748.309 -1.008 749.737 0.691 C 750.073 1.091 750.371 1.498 750.637 1.914 C 771.461 1.866 795.132 2.278 798.034 2.941 C 798.936 3.147 798.455 3.229 798.761 3.668 C 799.354 4.52 800.729 6.625 801.254 8.446 C 801.833 10.454 802.087 12.952 801.877 15.301 C 801.654 17.791 800.812 20.785 799.8 22.987 C 798.884 24.978 797.204 27.047 796.268 28.076 C 795.692 28.711 795.108 28.526 794.814 29.219 C 794.364 30.283 795.033 32.752 794.814 34.62 C 794.58 36.619 794.191 38.764 793.36 40.852 C 792.455 43.124 790.76 45.874 789.413 47.707 C 788.292 49.232 787.531 50.177 785.986 51.342 C 784.053 52.8 780.824 54.719 778.3 55.497 C 776.019 56.2 772.805 54.808 771.548 56.12 C 770.204 57.523 771.732 61.632 770.925 64.118 C 770.113 66.62 768.28 69.353 766.667 71.077 C 765.355 72.477 764.014 73.374 762.365 74.081 C 767.355 77.724 771.376 80.812 772.938 82.044 C 774.082 82.947 772.999 82.632 774.365 83.472 C 779.901 86.871 826.084 104.384 834.806 111.55 C 834.993 111.703 835.171 111.854 835.34 112.002 C 835.643 112.067 835.942 112.145 836.233 112.238 C 839.319 113.218 841.928 115.337 845.276 118.425 C 849.88 122.672 855.391 131.245 860.981 136.985 C 862.478 138.523 864.04 139.945 865.634 141.319 C 865.619 140.324 865.674 139.309 865.785 138.283 C 866.064 135.711 867.589 133.683 867.873 130.23 C 868.267 125.443 866.27 115.774 866.68 111.44 C 866.943 108.655 867.469 107.274 868.47 105.474 C 869.491 103.637 870.951 101.805 872.795 100.553 C 874.769 99.212 878.586 99.581 880.102 97.868 C 881.621 96.153 880.803 92.397 881.892 90.263 C 882.906 88.274 883.857 86.885 886.217 85.341 C 889.739 83.037 898.185 79.992 902.919 79.078 C 906.606 78.366 909.569 78.125 912.464 79.078 C 915.391 80.042 917.89 82.136 920.368 84.894 C 923.385 88.253 927.128 94.328 928.719 98.614 C 930.049 102.195 930.398 105.731 930.211 108.755 C 930.045 111.418 929.467 113.383 928.123 115.913 C 926.446 119.069 920.498 122.509 920.07 126.054 C 919.655 129.479 924.164 133.307 925.14 136.792 C 926.025 139.951 926.331 143.174 926.035 146.038 C 925.758 148.713 924.834 151.384 923.649 153.495 C 922.545 155.46 921.031 157.101 919.324 158.416 C 917.605 159.741 915.481 160.801 913.359 161.399 C 911.209 162.004 908.101 162.012 906.499 161.995 C 905.473 161.984 904.759 161.002 904.262 161.697 C 903.174 163.217 905.018 173.003 904.56 177.654 C 904.433 178.937 904.279 180.193 904.083 181.399 C 912.25 193.907 931.498 235.255 940.458 256.439 C 947.853 273.922 952.513 286.572 956.639 302.126 C 960.76 317.666 960.075 332.745 965.205 349.717 C 971.093 369.197 988.413 399.758 991.856 412.537 C 993.076 417.066 993.498 419.883 993.357 422.39 C 995.929 425.979 998.419 430.579 999.471 434.535 C 1000.778 439.451 999.823 444.837 999.477 449.681 C 999.807 449.587 1000.149 449.498 1000.503 449.416 C 1006.831 447.943 1024.421 448.75 1026.924 449.416 C 1027.583 449.591 1027.3 449.682 1027.589 450.081 C 1028.155 450.861 1029.491 452.848 1030.06 454.453 C 1030.654 456.129 1030.785 456.855 1031.011 459.965 C 1031.493 466.62 1031.31 489.152 1031.201 497.41 C 1031.135 502.332 1031.111 504.921 1030.82 507.674 C 1030.599 509.774 1030.378 511.157 1029.87 512.806 C 1029.363 514.452 1028.675 516.16 1027.779 517.558 C 1026.918 518.903 1025.938 520.047 1024.643 521.074 C 1023.229 522.197 1021.398 523.351 1019.511 523.926 C 1017.547 524.523 1014.307 524.512 1013.048 524.496 C 1012.397 524.488 1012.169 523.94 1011.813 524.306 C 1011.05 525.09 1011.309 530.229 1010.292 532.574 C 1009.359 534.726 1007.859 536.575 1006.206 537.991 C 1005.069 538.965 1003.71 539.789 1002.307 540.39 C 1000.825 559.466 999.827 578.095 1004.23 584.447 C 1008.926 591.222 1021.284 585.474 1026.598 587.302 C 1030.38 588.603 1032.822 589.21 1034.688 592.537 C 1037.416 597.403 1039 609.063 1037.544 617.285 C 1035.992 626.041 1029.699 637.686 1024.694 643.46 C 1020.839 647.907 1015.148 648.755 1011.844 651.55 C 1009.112 653.862 1008.703 656.368 1005.658 658.689 C 1001.564 661.809 992.119 664.432 988.049 667.731 C 984.929 670.26 984.627 673.998 981.862 675.822 C 978.978 677.723 974.287 675.315 970.916 678.677 C 965.418 684.161 963.27 703.364 956.639 714.37 C 949.866 725.611 937.711 739.931 930.464 745.304 C 925.916 748.677 923.559 744.864 918.566 749.588 C 907.38 760.171 874.26 824.352 869.547 830.968 C 868.537 832.386 868.97 831.393 868.119 832.396 C 865.762 835.174 856.644 848.279 852.414 852.86 C 849.585 855.925 846.914 857.282 845.276 859.047 C 844.103 860.31 844.39 861.031 842.896 862.378 C 840.223 864.791 830.814 869.346 828.143 871.897 C 826.595 873.375 826.477 874.79 825.763 875.704 C 825.245 876.367 824.999 876.614 824.336 877.132 C 823.422 877.845 821.56 878.48 820.528 879.511 C 819.497 880.542 819.663 881.687 818.149 883.318 C 815.418 886.262 809.581 891.744 802.92 895.692 C 794.405 900.739 780.789 903.207 769.606 909.969 C 757.015 917.583 740.323 934.627 731.533 940.428 C 726.39 943.822 724.105 945.193 720.111 946.139 C 716.923 946.894 713.106 947.09 709.898 946.602 C 709.227 947.401 708.483 948.18 707.662 948.915 C 703.262 952.858 694.261 956.932 688.158 959.705 C 682.802 962.138 676.525 962.396 673.011 965.1 C 670.063 967.367 669.546 971.949 667.408 973.814 C 665.654 975.345 663.611 975.89 661.599 976.304 C 659.599 976.715 657.623 977.008 655.374 976.304 C 652.539 975.417 647.997 972.527 646.037 970.287 C 644.473 968.499 644.003 966.819 643.547 964.477 C 642.991 961.622 642.585 957.349 643.547 954.103 C 644.536 950.766 647.019 947.472 649.564 944.766 C 652.177 941.986 655.4 939.663 659.109 937.711 C 663.178 935.57 667.908 935.055 673.218 932.731 C 679.765 929.867 690.08 922.493 695.627 921.112 C 696.556 920.881 697.388 920.735 698.157 920.662 C 699.476 917.917 701.509 915.442 703.93 913.777 C 707.871 911.067 714.285 913.131 720.111 909.969 C 727.904 905.741 735.872 893.517 745.811 887.126 C 756.33 880.362 772.411 876.871 781.98 870.945 C 789.85 866.07 795.551 861.48 800.54 855.24 C 805.56 848.96 806.402 841.62 811.962 833.348 C 819.257 822.494 832.701 805.991 842.896 795.751 C 851.708 786.9 860.136 785.334 869.071 774.335 C 881.661 758.838 897.549 726.186 908.096 704.852 C 915.017 690.853 923.279 675.954 927.434 663.983 C 927.351 664.002 927.269 664.02 927.187 664.039 C 919.819 665.705 906.226 667.659 900.728 667.347 C 898.174 667.202 896.857 666.654 895.497 665.944 C 894.925 666.265 894.369 666.597 893.833 666.94 C 888.632 670.273 882.713 676.205 879.236 678.253 C 877.16 679.475 876.26 679.758 874.492 680.078 C 872.532 680.432 870.259 680.807 867.923 680.078 C 865.932 679.456 863.188 677.887 861.032 676.237 C 858.075 679.685 854.915 682.953 851.38 686.281 C 845.138 692.158 833.861 698.231 830.031 703.25 C 827.499 706.57 828.182 709.881 826.747 712.374 C 825.488 714.56 823.96 716.35 822.185 717.665 C 820.475 718.933 818.401 719.791 816.347 720.22 C 814.268 720.653 811.793 720.496 809.778 720.22 C 808.231 720.008 807.014 719.273 805.559 718.918 C 805.504 719.28 805.436 719.635 805.354 719.984 C 804.614 723.121 802.493 726.461 800.493 728.457 C 798.745 730.2 796.531 731.193 794.381 731.791 C 792.267 732.379 789.761 732.383 787.713 732.069 C 786.486 731.88 785.291 731.5 784.187 731.016 C 782.481 733.455 780.111 736.605 778.58 738.4 C 777.116 740.114 776.359 740.828 774.717 742.262 C 772.609 744.104 769.146 746.155 766.64 748.513 C 764.082 750.92 761.42 754.705 759.546 756.59 C 758.262 757.883 757.338 758.254 756.386 759.329 C 755.384 760.461 754.754 762.01 753.717 763.263 C 752.636 764.567 751.478 765.922 749.994 766.985 C 748.402 768.126 746.276 769.263 744.376 769.794 C 742.574 770.298 740.734 770.432 738.897 770.216 C 736.989 769.992 734.831 769.315 733.138 768.39 C 731.497 767.493 730.028 766.249 728.854 764.808 C 727.652 763.334 726.608 761.485 726.044 759.61 C 725.469 757.698 725.225 755.496 725.482 753.43 C 725.75 751.282 726.433 749.262 727.73 746.968 C 729.342 744.117 732.8 740.255 735.105 737.767 C 737.013 735.708 740.504 734.279 740.513 732.781 C 740.521 731.43 737.347 730.588 736.158 729.129 C 734.951 727.646 733.913 725.806 733.349 723.931 C 732.774 722.019 732.623 720.081 732.787 717.751 C 732.984 714.955 733.694 710.875 734.894 708.199 C 735.969 705.801 737.622 703.715 739.319 702.229 C 740.867 700.873 742.567 699.988 744.516 699.419 C 746.608 698.809 749.712 699.189 751.54 698.857 C 751.682 698.831 751.814 698.802 751.937 698.771 C 752.075 696.912 752.219 694.976 752.015 693.037 C 751.532 688.446 749.479 682.53 748.96 678.313 C 748.539 674.896 748.287 671.879 748.682 669.424 C 749.004 667.418 749.673 665.985 750.626 664.423 C 751.63 662.779 752.939 661.083 754.655 659.839 C 756.526 658.482 759.16 657.25 761.6 656.783 C 764.065 656.312 766.765 656.543 769.378 657.061 C 772.133 657.607 774.864 658.547 777.712 660.117 C 780.999 661.929 784.927 664.54 787.852 667.757 C 789.863 669.967 791.706 672.596 793.29 675.444 C 793.575 674.239 793.895 673.146 794.269 672.232 C 795.668 668.816 797.199 666.832 799.378 664.751 C 801.614 662.614 803.882 661.423 807.588 659.642 C 812.828 657.123 821.971 655.371 829.119 651.613 C 836.877 647.535 850.156 637.404 852.292 635.556 C 852.834 635.088 852.41 635.178 852.839 634.827 C 853.928 633.937 858.033 630.738 860.868 630.083 C 862.001 629.821 863.246 629.731 864.497 629.783 C 865.274 628.102 866.144 626.523 867.011 625.156 C 868.98 622.049 871.477 619.608 874.127 617.675 C 876.669 615.821 878.588 614.233 882.52 613.661 C 884.145 613.425 886.343 613.406 888.799 613.533 C 888.7 613.22 888.613 612.907 888.537 612.596 C 887.988 610.332 887.933 607.689 888.347 605.373 C 888.76 603.064 889.553 601.024 891.008 598.72 C 892.788 595.903 896.472 592.283 898.897 589.882 C 900.906 587.891 902.729 586.746 904.504 585.035 C 906.277 583.325 907.513 581.43 909.541 579.617 C 911.869 577.536 915.197 574.825 917.904 573.345 C 918.229 573.167 918.557 572.999 918.886 572.839 C 918.744 572.027 918.628 571.228 918.549 570.441 C 918.298 567.967 918.194 565.564 918.549 563.408 C 918.877 561.409 919.48 559.598 920.449 557.896 C 921.452 556.136 923.015 554.35 924.536 553.049 C 925.977 551.816 927.448 551.054 929.288 550.198 C 931.392 549.219 935.37 548.469 936.606 547.632 C 937.269 547.183 937.303 547.098 937.556 546.302 C 938.052 544.741 938.247 540.033 938.316 537.558 C 938.373 535.561 937.809 534.276 938.126 532.426 C 938.496 530.271 939.488 527.782 940.787 525.393 C 942.112 522.958 944.403 519.627 946.207 517.7 C 946.294 514.023 946.283 509.784 946.258 507.125 C 946.227 503.783 945.889 502.642 945.877 498.952 C 945.86 493.298 945.834 479.742 946.638 475.192 C 947.058 472.814 947.516 472.196 948.348 470.821 C 949.228 469.367 950.59 467.816 951.865 466.734 C 953.044 465.734 954.366 464.994 955.666 464.453 C 956.904 463.938 958.174 463.662 959.468 463.503 C 960.771 463.343 962.156 463.343 963.459 463.503 C 963.618 463.523 963.775 463.542 963.93 463.561 C 962.841 460.685 961.851 457.754 961.398 454.523 C 960.16 445.693 959.519 432.87 961.398 425.969 C 961.441 425.812 961.485 425.656 961.532 425.501 C 953.414 410.373 940.753 378.311 935.699 361.139 C 931.069 345.411 932.939 334.68 929.036 320.211 C 924.653 303.961 916.869 273.885 909.524 268.336 C 905.353 265.186 899.915 271.008 896.198 270.24 C 892.946 269.568 891.501 269.041 888.108 265.005 C 880.752 256.257 861.398 213.107 856.222 206.468 C 854.526 204.293 854.642 206.173 852.89 204.089 C 847.71 197.926 826.099 166.568 820.528 151.738 C 819.237 148.301 818.254 144.847 817.552 141.524 C 814.81 140.013 812.269 137.309 811.011 136.298 C 810.179 135.629 810.844 135.612 809.583 134.87 C 805.242 132.315 779.464 123.7 768.655 117.737 C 760.03 112.98 750.969 105.255 748.19 102.984 C 747.178 102.157 748.127 102.471 746.763 101.556 C 741.03 97.715 692.327 74.511 682.515 66.815 C 678.053 63.315 680.314 61.182 676.328 58.724 C 669.537 54.539 648.856 52.411 639.207 48.254 C 631.679 45.011 625.127 42.128 621.598 37.308 C 621.261 36.848 620.945 36.356 620.651 35.839 C 613.756 37.167 605.864 37.844 602.086 37.256 C 598.195 36.65 598.817 33.994 594.471 32.496 C 586.164 29.633 559.602 24.534 549.736 24.882 C 543.761 25.093 542.946 27.933 537.362 28.689 C 529.12 29.806 514.222 28.856 503.097 28.689 C 492.35 28.528 483.443 27.535 471.686 27.737 C 457.908 27.975 433.92 32.512 425.047 30.593 C 420.202 29.545 418.615 25.086 416.481 24.882 C 415.043 24.745 414.328 25.737 413.149 26.785 C 411.532 28.225 410.289 31.285 407.914 33.448 C 405.034 36.072 400.643 39.639 396.493 41.063 C 392.387 42.471 386.88 42.925 383.167 42.015 C 381.854 41.693 380.582 41.234 379.412 40.618 C 371.508 42.495 361.966 44.348 354.824 47.726 C 342.325 53.637 332.497 64.763 318.655 71.521 C 303.379 78.979 279.578 82.703 266.305 89.606 C 256.027 94.951 246.614 103.703 242.985 107.214 C 241.332 108.814 242.09 109.171 240.605 110.546 C 237.931 113.021 229.508 116.216 225.852 120.54 C 222.243 124.808 220.599 133.876 218.714 136.245 C 217.806 137.385 217.306 136.824 216.334 137.673 C 214.748 139.058 213.234 142.053 210.147 144.811 C 205.574 148.897 194.398 154.743 189.683 159.564 C 186.059 163.27 186.735 167.34 182.544 170.51 C 176.703 174.929 161.012 173.503 154.466 180.98 C 146.842 189.69 148.716 210.121 143.044 223.336 C 137.421 236.439 128.178 251.083 120.676 259.982 C 114.834 266.911 107.309 269.853 103.067 274.735 C 102.426 275.473 101.898 276.26 101.441 277.069 C 103.54 280.337 105.302 283.274 104.019 291.868 C 100.744 313.801 61.023 416.362 53.097 427.502 C 51.088 430.326 49.711 428.145 48.814 429.406 C 47.748 430.903 47.593 433.09 47.862 436.544 C 48.327 442.524 53.366 454.195 54.525 464.147 C 55.787 474.994 56.161 488.672 54.525 499.364 C 53.031 509.119 45.881 517.34 45.958 526.015 C 45.975 527.965 46.36 529.923 46.959 531.876 C 49.499 530.387 52.61 529.824 55.376 530.033 C 58.696 530.283 63.508 532.589 65.368 534.378 C 66.695 535.653 65.29 537.916 67.106 538.722 C 70.65 540.297 88.219 535.821 91.871 536.115 C 93.289 536.23 92.96 537.538 94.043 536.984 C 97.006 535.471 103.504 519.158 110.987 513.523 C 118.631 507.768 128.34 504.669 139.662 503.096 Z M 111.129 684.132 C 114.074 683.053 117.46 683.39 119.495 682.459 C 121.051 681.748 121.518 680.401 122.842 679.67 C 124.272 678.88 125.879 678.166 127.862 677.997 C 127.93 677.991 128 677.986 128.07 677.981 C 123.552 670.817 116.671 664.909 114.029 657.332 C 112.493 652.929 111.63 647.719 111.148 642.615 C 107.268 640.843 103.238 638.027 100.995 635.609 C 98.666 633.098 99.476 628.687 97.085 627.354 C 94.4 625.857 88.903 629.177 84.919 628.223 C 83.447 627.87 81.975 627.393 80.513 626.745 C 82.063 633.938 82.472 640.074 84.983 648.166 C 88.754 660.321 97.405 676.444 101.338 689.221 C 104.022 687.418 108.152 685.223 111.129 684.132 Z M 1003.024 273.655 C 1006.802 273.056 1012.014 273.939 1015.447 275.208 C 1018.446 276.316 1020.986 277.702 1022.822 280.254 C 1024.957 283.22 1027.258 288.753 1026.704 292.676 C 1026.143 296.653 1022.372 301.71 1019.328 303.934 C 1016.669 305.877 1013.195 306.24 1010.012 306.263 C 1006.73 306.287 1002.954 305.415 999.919 303.934 C 996.869 302.446 993.511 300.052 991.767 297.335 C 990.083 294.712 989.217 291.134 989.438 288.018 C 989.665 284.795 991.08 280.703 993.319 278.313 C 995.586 275.895 999.468 274.218 1003.024 273.655 Z" style="stroke: #F3FAFB; stroke-width: 2px; fill: #F3FAFB;" transform="matrix(1, 0, 0, 1, 1.4210854715202004e-14, 0)"/>
  <path fill="#F3FAFB" stroke-width="0" d="M 677.824 939.718 C 677.665 943.507 677.298 947.961 676.142 950.884 C 675.192 953.284 673.513 955.151 672.088 956.466 C 670.915 957.55 669.841 958.102 668.417 958.608 C 666.83 959.172 664.741 959.599 662.911 959.525 C 661.07 959.451 659.07 958.972 657.405 958.149 C 656.823 957.861 656.244 957.514 655.686 957.123 C 652.042 956.995 648.829 956.667 647.649 956.15 C 646.332 955.572 646.598 954.451 646.243 953.673 C 645.932 952.989 645.75 952.422 645.574 951.731 C 645.387 950.999 645.238 950.158 645.172 949.388 C 645.108 948.641 645.091 948.03 645.172 947.179 C 645.272 946.127 645.534 944.808 645.841 943.497 C 646.183 942.039 646.642 940.105 647.18 938.81 C 647.518 937.999 647.903 937.333 648.311 936.722 C 648.56 934.923 649.033 932.565 649.542 930.431 C 649.509 930.247 649.481 930.063 649.457 929.883 C 649.326 928.9 649.324 927.851 649.39 926.937 C 649.45 926.099 649.535 925.644 649.791 924.594 C 650.189 922.965 651.153 919.483 651.867 917.766 C 652.041 917.348 652.211 916.985 652.383 916.655 C 652.434 916.27 652.505 915.863 652.59 915.454 C 652.513 915.092 652.449 914.731 652.402 914.382 C 652.274 913.414 652.257 912.452 652.335 911.503 C 652.414 910.556 652.587 909.616 652.871 908.691 C 652.896 908.61 652.921 908.529 652.946 908.449 C 652.927 907.984 652.941 907.507 653.005 906.965 C 653.153 905.703 653.544 904.018 654.076 902.681 C 654.217 902.325 654.383 901.965 654.564 901.608 C 654.557 901.175 654.574 900.728 654.612 900.226 C 654.709 898.945 655.055 897.087 655.348 895.874 C 655.585 894.892 655.781 894.227 656.151 893.397 C 656.547 892.509 657.133 891.496 657.691 890.719 C 658.201 890.009 658.741 889.433 659.331 888.878 C 659.914 888.33 660.539 887.839 661.206 887.405 C 661.877 886.968 662.457 886.596 663.348 886.267 C 664.472 885.852 666.257 885.395 667.566 885.263 C 668.737 885.145 669.788 885.226 670.846 885.397 C 671.885 885.565 672.943 885.893 673.859 886.267 C 674.717 886.618 675.44 887.012 676.202 887.539 C 677.015 888.102 677.877 888.832 678.579 889.581 C 679.269 890.318 679.854 891.084 680.386 891.991 C 680.958 892.965 681.523 894.213 681.859 895.272 C 682.166 896.238 682.304 897.117 682.395 898.083 C 682.488 899.079 682.472 900.212 682.395 901.163 C 682.325 902.029 682.186 902.796 681.993 903.573 C 681.955 903.727 681.917 903.876 681.879 904.021 C 681.959 904.467 682.019 904.912 682.06 905.344 C 682.144 906.23 682.132 906.765 682.06 907.955 C 681.952 909.727 681.628 913.317 681.245 915.545 C 682.534 914.317 683.978 913.019 685.548 911.601 C 688.003 909.383 691.479 907.074 695.119 904.551 C 692.251 903.581 689.569 901.71 687.932 899.838 C 686.121 897.767 685.545 895.026 685.047 892.264 C 684.51 889.292 684.479 885.768 685.047 882.526 C 685.636 879.156 686.654 875.726 688.653 872.427 C 690.928 868.673 695.475 863.986 698.572 861.426 C 700.983 859.433 702.613 858.648 705.425 857.459 C 708.891 855.993 714.969 855.801 718.229 853.671 C 721.133 851.775 722.624 847.872 724.541 845.917 C 726.037 844.391 727.682 843.488 728.689 842.49 C 729.437 841.749 729.398 841.374 730.312 840.507 C 731.921 838.98 735.554 835.911 738.607 834.014 C 741.782 832.042 746.248 829.864 749.067 828.965 C 751.096 828.318 752.554 828.22 754.117 828.244 C 755.539 828.265 756.653 828.348 758.084 828.965 C 759.894 829.745 762.86 831.941 764.035 833.113 C 764.784 833.859 764.491 835.039 765.298 835.096 C 766.684 835.196 769.961 831.295 772.872 830.047 C 776.025 828.695 780.623 827.422 783.692 827.522 C 786.221 827.605 788.049 830.457 790.185 829.686 C 792.999 828.67 795.475 821.135 798.48 818.866 C 800.962 816.992 804.041 816.264 806.415 815.98 C 807.238 815.882 807.999 815.867 808.734 815.933 C 808.735 815.932 808.735 815.931 808.736 815.931 C 809.477 814.121 810.224 812.454 810.844 811.232 C 812.009 808.936 812.8 807.309 814.228 805.939 C 817.203 797.943 819.804 786.964 822.385 781.656 C 824.479 777.35 825.842 774.841 828.337 772.819 C 830.659 770.937 834.234 769.887 836.632 769.573 C 838.551 769.322 839.98 769.607 841.682 770.294 C 843.116 770.873 844.843 771.912 846.249 773.097 C 847.358 771.126 848.853 768.237 850.719 765.746 C 854.443 760.774 862.74 751.573 866.408 747.892 C 868.578 745.715 869.493 745.483 871.277 743.744 C 873.493 741.587 876.392 737.775 878.671 735.629 C 880.539 733.871 882.371 732.965 883.901 731.481 C 885.356 730.07 885.949 728.165 887.688 726.973 C 889.697 725.596 893.301 724.358 895.623 724.087 C 897.522 723.866 898.971 724.122 900.673 724.809 C 902.632 725.6 905.182 727.418 906.624 728.957 C 907.868 730.283 908.607 731.695 909.149 733.285 C 909.71 734.93 910.059 736.809 909.87 738.695 C 909.663 740.76 908.848 743.082 907.706 745.187 C 906.462 747.481 904.382 749.909 902.476 751.86 C 900.643 753.736 897.977 755.335 896.525 756.729 C 895.455 757.755 895.022 758.592 894.181 759.434 C 893.339 760.276 892.561 760.727 891.476 761.778 C 889.967 763.24 887.25 766.436 885.885 767.73 C 885.026 768.544 885.057 768.121 883.901 769.353 C 880.618 772.853 866.913 792.277 862.08 796.584 C 859.669 798.732 858.52 798.936 856.67 799.469 C 854.909 799.978 853.299 800.34 851.26 799.83 C 850.471 799.632 849.519 799.312 848.518 798.894 C 848.465 799.036 848.41 799.181 848.354 799.329 C 845.719 806.296 838.797 822.898 834.288 829.987 C 833.076 831.892 831.887 833.442 830.709 834.785 C 829.828 836.249 828.901 837.552 827.976 838.463 C 826.949 839.474 825.839 840.127 824.72 840.602 C 822.178 842.899 819.581 845.054 817.155 846.037 C 815.273 846.8 813.652 847.169 811.741 846.89 C 806.248 853.827 793.303 869.593 789.463 873.329 C 787.839 874.909 787.735 874.235 786.398 875.493 C 784.057 877.695 779.35 884.542 776.479 887.034 C 774.46 888.787 773.24 889.391 771.069 890.28 C 768.512 891.328 763.949 891.292 761.871 892.625 C 760.243 893.669 760.147 895.624 758.806 896.773 C 757.369 898.003 755.206 899.128 753.395 899.658 C 751.718 900.149 750.133 900.302 748.346 900.019 C 748.231 900.001 748.116 899.977 748 899.949 C 744.895 906.661 739.916 915.866 736.764 919.175 C 734.771 921.267 733.165 921.531 731.354 922.06 C 729.677 922.551 728.084 922.748 726.304 922.421 C 724.267 922.046 722.593 918.97 719.812 919.536 C 715.337 920.447 704.669 931.284 701.598 934.143 C 700.147 935.493 700.389 935.857 699.253 936.848 C 697.663 938.236 694.694 940.659 692.401 941.537 C 690.364 942.317 688.504 942.753 686.269 942.258 C 683.823 941.718 680.101 940.001 677.876 937.892 C 677.866 938.516 677.849 939.128 677.824 939.718 Z M 87.072 595.699 C 90.845 595.464 96.884 598.143 101.186 598.051 C 105.037 597.969 108.477 595.35 111.771 595.699 C 114.927 596.032 117.86 596.209 120.593 599.815 C 125.602 606.425 133.825 634.813 133.53 642.157 C 133.391 645.64 130.612 644.277 130.002 648.038 C 129.123 653.458 132.59 668.182 134.412 681.697 C 138.906 681.661 144.875 682.704 146.958 683.981 C 148.137 684.704 147.764 684.86 148.481 686.646 C 150.353 691.31 153.184 713.923 158.379 719.006 C 162.017 722.565 169.869 719.97 172.084 721.29 C 173.295 722.011 172.951 722.789 173.607 723.955 C 174.562 725.651 176.525 727.767 177.414 730.807 C 178.609 734.896 177.941 744.924 178.937 747.177 C 179.357 748.129 179.992 747.779 180.46 748.32 C 181.026 748.974 181.416 750.33 181.982 750.984 C 182.45 751.525 182.544 751.047 183.505 752.127 C 187.063 756.124 206.563 786.686 212.819 792.862 C 215.745 795.75 217.976 795.399 219.291 796.669 C 220.21 797.556 220.145 798.693 220.814 799.333 C 221.436 799.928 222.513 799.994 223.098 800.476 C 223.618 800.904 223.514 801.068 224.24 801.998 C 226.081 804.357 233.907 814.365 236.423 817.226 C 237.726 818.709 237.612 818.31 239.087 819.891 C 242.381 823.42 254.599 839.777 257.742 840.83 C 258.982 841.246 258.771 839.786 260.026 839.307 C 262.264 838.454 268.401 836.801 271.447 837.023 C 273.807 837.195 275.956 838.311 277.158 839.307 C 278.068 840.061 278.13 840.896 278.68 841.972 C 279.373 843.325 280.001 845.615 280.965 846.921 C 281.246 847.302 281.57 847.595 281.911 847.857 C 283.249 845.699 285.282 843.692 286.725 842.549 C 288.097 841.462 289.443 841.888 290.728 840.809 C 292.375 839.425 293.477 835.77 295.427 834.195 C 297.284 832.696 299.609 831.739 302.041 831.41 C 304.675 831.055 308.233 831.439 310.743 832.455 C 313.125 833.419 314.779 835.165 316.834 837.154 C 319.237 839.478 321.874 842.113 324.144 845.856 C 326.951 850.485 328.314 857.385 331.801 863.608 C 335.832 870.799 342.929 883.052 347.639 886.407 C 350.521 888.46 353.462 886.794 355.645 887.799 C 357.601 888.699 359.153 890.2 360.344 891.802 C 361.527 893.394 362.359 895.319 362.781 897.371 C 362.853 897.721 362.908 898.096 362.95 898.486 C 363.868 900.014 364.542 901.849 364.924 903.307 C 365.341 904.899 364.877 905.461 365.204 907.776 C 365.831 912.225 368.128 923.706 369.673 930.262 C 370.984 935.827 372.966 940.93 373.723 944.927 C 374.295 947.951 374.626 950.243 374.421 952.469 C 374.243 954.411 373.726 956.073 372.885 957.636 C 372.034 959.219 370.694 960.781 369.324 961.896 C 368.004 962.971 366.451 963.781 364.854 964.27 C 363.241 964.765 361.471 965.022 359.687 964.829 C 357.758 964.62 355.309 963.786 353.681 962.874 C 352.253 962.073 351.255 961.148 350.259 959.871 C 349.148 958.446 348.015 956.281 347.466 954.564 C 346.976 953.033 347.335 952.139 346.907 950.094 C 346.8 949.581 346.662 949.016 346.501 948.407 C 346.415 948.393 346.33 948.379 346.247 948.365 C 345.16 948.176 344.561 947.138 343.462 947.321 C 341.936 947.574 340.188 950.372 337.893 951.15 C 335.233 952.051 331.043 952.279 328.147 951.846 C 325.541 951.456 323.546 950.533 321.185 949.061 C 318.399 947.324 313.902 943.131 312.657 941.577 C 312.073 940.848 312.427 940.609 311.961 940.011 C 311.242 939.089 310.202 938.997 308.132 936.704 C 303.417 931.484 286.719 910.651 279.596 900.076 C 276.426 901.79 272.279 901.697 269.163 900.981 C 265.776 900.202 262.924 894.997 260.026 894.889 C 257.364 894.79 255.033 898.72 252.412 899.458 C 249.947 900.152 248.565 900.644 244.798 899.458 C 237.27 897.088 219.192 886.413 207.489 878.139 C 195.705 869.806 179.605 852.904 174.368 849.586 C 172.437 848.362 172.372 849.219 170.942 848.444 C 168.719 847.239 164.697 846.158 162.186 841.972 C 158.013 835.014 158.464 808.645 153.049 804.283 C 149.419 801.358 142.898 807.474 138.963 806.567 C 135.432 805.753 132.686 804.575 130.207 800.095 C 125.717 791.98 124.805 766.867 121.07 752.888 C 118.499 743.265 114.006 734.668 111.347 726.641 C 110.724 726.557 110.087 726.422 109.419 726.253 C 105.908 725.364 101.519 723.873 98.246 718.608 C 92.581 709.495 90.311 681.564 85.308 666.857 C 81.093 654.466 73.339 644.762 71.194 635.1 C 69.396 627.002 69.473 619.149 71.194 612.753 C 72.742 607 76.874 600.734 80.015 598.051 C 82.264 596.13 84.168 595.879 87.072 595.699 Z" style="fill: #F3FAFB; stroke-width: 2px; stroke: #F3FAFB;" transform="matrix(1, 0, 0, 1, 1.4210854715202004e-14, 0)"/>
</svg>